<?xml version="1.0" standalone="no"?>
<!DOCTYPE svg PUBLIC "-//W3C//DTD SVG 20010904//EN"
 "http://www.w3.org/TR/2001/REC-SVG-20010904/DTD/svg10.dtd">
<svg version="1.0" xmlns="http://www.w3.org/2000/svg"
 width="360.000000pt" height="360.000000pt" viewBox="0 0 360.000000 360.000000"
 preserveAspectRatio="xMidYMid meet">

<g transform="translate(0.000000,360.000000) scale(0.100000,-0.100000)"
fill="#000000" stroke="none">
<path d="M1952 2835 c-57 -50 -102 -147 -116 -246 -7 -46 -17 -84 -24 -87 -16
-5 -15 -22 2 -22 25 0 37 27 45 103 19 170 141 319 204 250 34 -38 49 -200 23
-255 -5 -12 -4 -18 3 -18 20 0 31 48 31 128 -1 162 -78 229 -168 147z"/>
<path d="M1965 2710 c-45 -65 -83 -200 -55 -200 5 0 14 19 20 43 15 59 38 116
57 141 14 20 15 18 10 -30 -3 -28 -15 -77 -27 -110 -29 -81 -34 -104 -22 -104
27 0 85 184 80 253 -4 57 -27 59 -63 7z"/>
<path d="M1124 2216 c-59 -62 -113 -163 -121 -224 -11 -95 46 -167 162 -205
54 -17 97 -25 330 -57 180 -25 214 -33 243 -60 21 -19 21 -26 15 -125 -4 -68
-3 -105 4 -105 11 0 23 91 23 171 0 84 -42 109 -226 134 -251 33 -331 46 -386
62 -61 17 -71 27 -37 38 24 8 89 63 89 76 0 17 -27 9 -50 -16 -13 -14 -42 -30
-64 -36 -47 -13 -59 -2 -77 65 -18 66 13 144 100 260 28 36 47 66 44 66 -4 0
-25 -20 -49 -44z"/>
<path d="M1422 2190 c-19 -31 -15 -41 13 -34 24 6 25 4 19 -20 -4 -19 -2 -26
9 -26 8 0 17 7 21 15 9 25 26 17 33 -15 7 -37 20 -39 29 -5 7 28 31 34 40 10
13 -32 34 -16 34 26 0 38 -2 40 -22 32 -37 -12 -86 -6 -117 16 -36 26 -43 26
-59 1z"/>
<path d="M1086 2022 c-3 -6 -1 -14 5 -17 15 -10 25 3 12 16 -7 7 -13 7 -17 1z"/>
</g>
</svg>
