<svg version="1.1" id="Layer_1" xmlns="http://www.w3.org/2000/svg" xmlns:xlink="http://www.w3.org/1999/xlink" x="0px" y="0px"
	 width="100%" viewBox="0 0 192 192" enable-background="new 0 0 192 192" xml:space="preserve">
<path fill="#020102" opacity="1.000000" stroke="none" 
	d="
M193.000000,80.000000 
	C193.000000,118.000000 193.000000,155.500000 193.000000,193.000000 
	C129.000000,193.000000 65.000000,193.000000 1.000000,193.000000 
	C1.000000,129.000000 1.000000,65.000000 1.000000,1.000000 
	C65.000000,1.000000 129.000000,1.000000 193.000000,1.000000 
	C193.000000,27.166666 193.000000,53.333332 193.000000,80.000000 
M92.131508,5.041016 
	C72.700272,6.225826 55.038200,12.403202 39.933754,24.741508 
	C17.163914,43.341408 5.187871,67.366119 4.924098,97.903831 
	C5.111654,116.937454 10.589359,134.359085 21.650257,149.794067 
	C49.411079,188.533066 98.833076,200.346069 140.796829,177.836868 
	C164.860733,164.929047 180.080185,144.668518 186.872330,117.350288 
	C187.531799,110.570549 188.191269,103.790817 188.995834,96.110123 
	C188.990616,44.614422 143.904984,1.900285 92.131508,5.041016 
z"/>
<path fill="#FDCBFE" opacity="1.000000" stroke="none" 
	d="
M186.397614,117.939491 
	C180.080185,144.668518 164.860733,164.929047 140.796829,177.836868 
	C98.833076,200.346069 49.411079,188.533066 21.650257,149.794067 
	C10.589359,134.359085 5.111654,116.937454 5.471038,97.452194 
	C18.207277,97.008789 30.396574,97.017021 42.592861,97.372391 
	C42.717739,98.146164 42.835632,98.572800 42.978958,99.000931 
	C43.004395,99.002434 42.984280,98.955612 42.618156,98.842285 
	C41.494457,100.155594 40.736881,101.582237 39.765198,103.193314 
	C39.575363,104.784332 39.340828,106.257744 39.682774,107.582329 
	C40.236820,109.728546 41.169197,111.777092 42.010292,114.224068 
	C46.848228,119.789619 52.065090,121.232307 58.588505,119.014008 
	C62.084164,119.343811 65.134499,119.793617 68.201256,120.004738 
	C74.807098,120.459496 81.422325,120.776581 88.030914,121.194221 
	C88.784416,121.241837 89.520103,121.571503 89.775032,121.639648 
	C88.130852,129.003326 86.552780,136.070908 84.616722,143.235107 
	C80.351555,153.940903 81.335899,158.268127 90.890533,159.145721 
	C90.924706,159.130615 90.880753,159.070175 90.933258,159.332825 
	C91.313751,159.696732 91.641724,159.797989 92.398506,159.931763 
	C99.830475,160.337387 106.831238,160.805161 113.839340,160.982529 
	C114.902077,161.009430 115.998970,159.686966 117.450897,159.001266 
	C119.886314,159.092224 121.950897,159.170547 124.366150,159.331573 
	C126.144539,159.609390 127.572266,159.804520 129.273224,160.274887 
	C133.124664,160.763458 136.932709,162.667831 140.297058,158.958588 
	C142.093903,157.224228 143.594711,155.660614 145.310822,154.063248 
	C145.526123,154.029480 145.960953,153.976059 146.324677,153.976105 
	C147.807159,152.999405 148.925934,152.022690 150.384430,150.992981 
	C152.120972,149.819672 153.632217,148.814667 154.896255,147.560501 
	C163.799271,138.727081 172.613861,129.804153 181.560532,121.015533 
	C182.893661,119.705940 184.771683,118.951019 186.397614,117.939491 
z"/>
<path fill="#DEB2DF" opacity="1.000000" stroke="none" 
	d="
M92.988556,5.152797 
	C143.904984,1.900285 188.990616,44.614422 188.464188,96.556091 
	C173.680969,97.008972 159.429413,97.015892 145.102875,96.739449 
	C144.735550,95.993858 144.443192,95.531631 143.869232,95.048080 
	C143.399429,95.031128 143.211227,95.035492 143.015015,94.777847 
	C143.002228,94.341156 142.997437,94.166473 143.033371,93.647530 
	C142.949310,92.114769 142.974304,90.886780 142.673370,89.744682 
	C141.462463,85.149139 138.529327,81.986511 134.118561,79.702049 
	C133.082184,78.126099 132.186325,76.854149 131.145126,75.298889 
	C129.667953,74.365234 128.336121,73.714897 126.849548,72.756958 
	C124.161263,69.934441 121.627724,67.419518 119.014023,64.587845 
	C117.934288,63.557049 116.934715,62.843002 115.935143,62.128956 
	C115.713158,62.471958 115.491173,62.814960 115.269188,63.157963 
	C116.489136,63.789696 117.709091,64.421432 118.946243,65.423218 
	C118.306862,66.865395 117.650284,67.937531 116.757050,68.987778 
	C116.520386,68.965881 116.048515,68.908585 115.979187,68.554810 
	C114.262177,67.467461 112.614487,66.733871 110.767273,65.923050 
	C110.567734,65.845802 110.174026,65.677124 110.179688,65.290848 
	C109.776352,63.276489 109.367355,61.648418 108.977692,59.676704 
	C108.654190,58.605633 108.311356,57.878201 107.655243,56.974552 
	C106.247643,56.459785 105.153320,56.121243 103.853798,55.550198 
	C101.766075,55.117088 99.883560,54.916477 97.938843,54.383415 
	C94.708328,50.067024 93.851219,50.230141 90.800751,54.168610 
	C89.728973,55.552391 87.571152,56.094994 85.695129,56.908539 
	C85.211716,56.589043 85.044579,56.319359 84.898102,55.794693 
	C84.668602,55.359550 84.469093,55.170406 83.978500,54.809143 
	C82.661514,53.223534 81.584068,51.864410 80.404800,50.248035 
	C79.925079,49.609798 79.547180,49.228809 79.089455,48.609985 
	C78.760628,48.159939 78.511642,47.947727 78.186020,47.421249 
	C77.435509,46.285492 76.761635,45.464008 76.058128,44.383240 
	C75.577530,43.618198 75.126572,43.112438 74.600830,42.304001 
	C74.332695,41.632252 74.139328,41.263180 73.903320,40.550888 
	C71.515602,39.250763 71.880692,32.405460 66.707520,36.773933 
	C66.836601,34.755806 66.635017,32.419605 67.703896,31.332117 
	C75.335625,23.567499 83.249123,16.080532 91.003464,8.434722 
	C91.885902,7.564627 92.337296,6.257356 92.988556,5.152797 
M112.711708,61.165287 
	C112.628036,61.218811 112.544357,61.272331 112.711708,61.165287 
z"/>
<path fill="#ECBEED" opacity="1.000000" stroke="none" 
	d="
M92.560036,5.096907 
	C92.337296,6.257356 91.885902,7.564627 91.003464,8.434722 
	C83.249123,16.080532 75.335625,23.567499 67.703896,31.332117 
	C66.635017,32.419605 66.836601,34.755806 66.718628,37.138851 
	C66.996445,38.495670 67.005753,39.227627 67.055725,40.298752 
	C68.013641,41.108124 68.930885,41.578327 69.787720,42.321247 
	C69.816864,43.383007 69.906410,44.172050 69.957550,45.333511 
	C70.213142,46.812862 70.507133,47.919804 70.814568,49.104103 
	C70.828011,49.181461 71.070847,49.333126 71.035309,49.613461 
	C71.041725,50.266689 71.083672,50.639584 71.028427,51.255562 
	C70.855988,51.656128 70.780746,51.813606 70.383598,52.029800 
	C67.425331,53.996319 64.788963,55.904129 62.152592,57.811935 
	C61.643154,57.501080 61.133717,57.190228 60.624283,56.879372 
	C61.042534,62.054337 61.460785,67.229301 61.824703,71.732033 
	C65.450706,69.221947 69.216080,66.615379 73.069221,64.352982 
	C73.291222,65.393944 73.425461,66.090729 73.215546,66.922638 
	C66.399162,73.392212 59.899441,79.699142 53.492188,86.098640 
	C52.755318,86.834618 52.534069,88.086830 52.171417,89.369659 
	C52.515686,89.930664 52.762291,90.221703 53.015152,90.529678 
	C53.021412,90.546631 53.034481,90.575348 52.646118,90.558960 
	C49.033794,92.703468 45.809834,94.864357 42.585873,97.025253 
	C30.396574,97.017021 18.207277,97.008789 5.555264,97.004250 
	C5.187871,67.366119 17.163914,43.341408 39.933754,24.741508 
	C55.038200,12.403202 72.700272,6.225826 92.560036,5.096907 
z"/>
<path fill="#ECBEED" opacity="1.000000" stroke="none" 
	d="
M145.177841,97.022804 
	C159.429413,97.015892 173.680969,97.008972 188.391632,97.006569 
	C188.191269,103.790817 187.531799,110.570549 186.634979,117.644890 
	C184.771683,118.951019 182.893661,119.705940 181.560532,121.015533 
	C172.613861,129.804153 163.799271,138.727081 154.896255,147.560501 
	C153.632217,148.814667 152.120972,149.819672 150.371246,150.979279 
	C150.018341,151.018555 149.992203,150.992676 149.960526,150.655716 
	C149.707199,148.706299 149.485535,147.093826 149.285461,145.638321 
	C147.851639,146.108307 146.554581,146.533463 145.205002,146.549988 
	C145.759018,143.655228 146.178299,141.103760 147.017929,138.699051 
	C148.148117,135.462204 149.602371,132.338501 150.873535,128.781570 
	C149.068375,124.421486 146.583878,120.409271 151.567642,116.820335 
	C151.716736,116.712967 151.190613,115.667976 150.968353,114.749573 
	C150.387039,113.656197 149.816681,112.873398 149.228760,111.717926 
	C149.778793,110.256172 150.571198,109.211815 150.801163,108.055588 
	C150.890778,107.605080 149.713531,106.902596 148.940262,106.023346 
	C147.507721,104.484825 146.248245,103.237839 144.993011,101.637787 
	C145.006973,100.580414 145.016708,99.876106 145.044830,98.812157 
	C145.101425,97.975952 145.139633,97.499374 145.177841,97.022804 
M151.091217,122.517426 
	C151.194031,122.787491 151.296844,123.057556 151.399643,123.327629 
	C151.613281,123.071960 151.826920,122.816299 152.040558,122.560631 
	C151.749405,122.353264 151.458267,122.145889 151.091217,122.517426 
z"/>
<path fill="#F8E8F8" opacity="1.000000" stroke="none" 
	d="
M84.974716,143.138489 
	C86.552780,136.070908 88.130852,129.003326 89.775032,121.639648 
	C89.520103,121.571503 88.784416,121.241837 88.030914,121.194221 
	C81.422325,120.776581 74.807098,120.459496 68.201256,120.004738 
	C65.134499,119.793617 62.084164,119.343811 58.484489,118.708870 
	C57.715515,117.602585 57.488434,116.789635 57.675388,115.982941 
	C63.366470,116.386070 68.724869,116.336395 73.902390,117.279572 
	C82.710442,118.884102 89.409142,116.186081 94.653526,109.059998 
	C96.327766,106.785042 98.522369,104.893044 100.478874,102.825829 
	C101.094376,103.134216 101.709885,103.442604 102.325386,103.750992 
	C101.418198,107.018394 101.056755,110.573761 99.510559,113.503975 
	C92.334358,127.103615 89.026642,141.557068 88.661804,156.791107 
	C84.720963,155.608887 83.519020,153.471466 84.673889,149.677673 
	C85.289650,147.654861 84.906837,145.328079 84.974716,143.138489 
z"/>
<path fill="#E2AFF2" opacity="1.000000" stroke="none" 
	d="
M41.941833,113.866875 
	C41.169197,111.777092 40.236820,109.728546 39.682774,107.582329 
	C39.340828,106.257744 39.575363,104.784332 40.115105,103.161232 
	C41.447510,101.615021 42.215897,100.285316 42.984280,98.955612 
	C42.984280,98.955612 43.004395,99.002434 43.290749,98.873749 
	C45.806065,96.983444 48.035027,95.221825 49.885048,93.759697 
	C51.081238,96.208748 51.993492,98.076477 52.988197,100.291916 
	C54.076889,103.354820 55.083130,106.070015 55.752449,109.049812 
	C55.176796,112.030289 54.938068,114.746155 54.641460,118.120529 
	C52.508350,117.825928 50.554714,117.865776 48.840603,117.244644 
	C46.447281,116.377388 44.232826,115.016518 41.941833,113.866875 
z"/>
<path fill="#EBDCEB" opacity="1.000000" stroke="none" 
	d="
M124.015488,159.248886 
	C121.950897,159.170547 119.886314,159.092224 117.092735,158.935242 
	C115.882408,158.800293 115.401062,158.743988 114.928535,158.290619 
	C114.699585,156.934158 114.361214,155.987259 114.240318,155.013367 
	C113.431229,148.495148 115.475853,141.596115 111.641800,135.465897 
	C111.609772,135.414688 112.086700,135.045166 112.494942,134.618301 
	C113.768639,134.262283 114.873383,134.112213 116.238495,134.105286 
	C117.016380,134.835175 117.533905,135.421906 118.181702,136.332245 
	C119.222435,136.860977 120.132896,137.066116 121.100906,137.469635 
	C121.158440,137.667999 121.285805,138.060959 121.243362,138.283798 
	C121.200928,138.506638 121.344772,138.936905 121.271858,139.277161 
	C121.124939,140.075531 121.050934,140.533630 120.739510,141.174011 
	C120.346390,141.919266 120.190689,142.482239 120.035172,143.446228 
	C119.951996,144.820023 120.073296,145.867004 119.751999,146.753555 
	C117.700195,152.414902 118.838676,155.857498 124.015488,159.248886 
z"/>
<path fill="#F38DC9" opacity="1.000000" stroke="none" 
	d="
M124.366150,159.331573 
	C118.838676,155.857498 117.700195,152.414902 119.751999,146.753555 
	C120.073296,145.867004 119.951996,144.820023 120.295547,143.435165 
	C120.729042,143.007629 120.902336,142.992157 121.435066,142.981201 
	C122.513199,143.002441 123.231911,143.019211 124.108612,143.362732 
	C125.181244,146.447006 126.095886,149.204544 126.691864,152.023010 
	C126.450111,153.396347 126.255325,154.804123 126.673965,155.996536 
	C127.176102,157.426819 128.201309,158.673462 129.000000,159.999634 
	C127.572266,159.804520 126.144539,159.609390 124.366150,159.331573 
z"/>
<path fill="#F7B3E4" opacity="1.000000" stroke="none" 
	d="
M129.273224,160.274887 
	C128.201309,158.673462 127.176102,157.426819 126.673965,155.996536 
	C126.255325,154.804123 126.450111,153.396347 126.956863,152.242340 
	C129.700867,153.564392 131.861237,154.728073 134.356354,155.903717 
	C135.137558,155.893555 135.584000,155.871414 136.260376,155.879715 
	C136.490295,155.910156 136.954971,155.903503 137.227936,155.927139 
	C137.682693,155.968201 137.864517,155.985626 138.014694,156.221390 
	C137.983047,156.439728 137.905365,156.874084 137.562408,156.917145 
	C136.451965,157.115509 135.684464,157.270813 134.916977,157.426117 
	C134.943863,157.572922 134.970764,157.719742 134.997650,157.866547 
	C136.280579,157.866547 137.563507,157.866547 139.094971,158.021332 
	C139.562683,158.493851 139.781860,158.811584 140.001038,159.129333 
	C136.932709,162.667831 133.124664,160.763458 129.273224,160.274887 
z"/>
<path fill="#A5A0A4" opacity="1.000000" stroke="none" 
	d="
M114.919724,158.687683 
	C115.401062,158.743988 115.882408,158.800293 116.721909,158.922623 
	C115.998970,159.686966 114.902077,161.009430 113.839340,160.982529 
	C106.831238,160.805161 99.830475,160.337387 92.270988,159.731735 
	C91.486702,159.259033 91.208733,159.116028 90.880753,159.070175 
	C90.880753,159.070175 90.924706,159.130615 90.928726,158.877747 
	C90.946266,158.445999 90.959785,158.267105 91.410881,158.034546 
	C99.538887,158.216461 107.229301,158.452072 114.919724,158.687683 
z"/>
<path fill="#9C76A4" opacity="1.000000" stroke="none" 
	d="
M42.010292,114.224068 
	C44.232826,115.016518 46.447281,116.377388 48.840603,117.244644 
	C50.554714,117.865776 52.508350,117.825928 54.641460,118.120529 
	C54.938068,114.746155 55.176796,112.030289 56.080750,109.310211 
	C56.917770,111.529564 57.089558,113.753128 57.261345,115.976685 
	C57.488434,116.789635 57.715515,117.602585 58.046612,118.720673 
	C52.065090,121.232307 46.848228,119.789619 42.010292,114.224068 
z"/>
<path fill="#A292A2" opacity="1.000000" stroke="none" 
	d="
M90.973297,158.088226 
	C90.959785,158.267105 90.946266,158.445999 90.894547,158.892853 
	C81.335899,158.268127 80.351555,153.940903 84.616730,143.235107 
	C84.906837,145.328079 85.289650,147.654861 84.673889,149.677673 
	C83.519020,153.471466 84.720963,155.608887 88.940544,156.905090 
	C90.034637,157.413879 90.503967,157.751053 90.973297,158.088226 
z"/>
<path fill="#9A77A1" opacity="1.000000" stroke="none" 
	d="
M52.905746,99.944206 
	C51.993492,98.076477 51.081238,96.208748 49.885048,93.759697 
	C48.035027,95.221825 45.806065,96.983444 43.265312,98.872246 
	C42.835632,98.572800 42.717739,98.146164 42.592861,97.372391 
	C45.809834,94.864357 49.033794,92.703468 52.659363,91.034859 
	C53.102333,93.368553 53.143688,95.209953 53.141762,97.412384 
	C53.034237,98.497002 52.969990,99.220604 52.905746,99.944206 
z"/>
<path fill="#BB95B8" opacity="1.000000" stroke="none" 
	d="
M137.905365,156.874084 
	C137.905365,156.874084 137.983047,156.439728 138.299011,156.195557 
	C139.092987,155.678391 139.570969,155.405365 140.411224,155.091980 
	C142.164230,154.683899 143.554962,154.316193 144.983444,153.985352 
	C145.021194,154.022186 145.095535,154.097015 145.095535,154.097015 
	C143.594711,155.660614 142.093903,157.224228 140.297058,158.958588 
	C139.781860,158.811584 139.562683,158.493851 139.001282,157.805923 
	C138.451248,157.190292 138.200012,157.003067 137.905365,156.874084 
z"/>
<path fill="#9A77A1" opacity="1.000000" stroke="none" 
	d="
M42.618156,98.842285 
	C42.215897,100.285316 41.447510,101.615021 40.329216,102.976807 
	C40.736881,101.582237 41.494457,100.155594 42.618156,98.842285 
z"/>
<path fill="#ECBEED" opacity="1.000000" stroke="none" 
	d="
M150.031525,151.032257 
	C148.925934,152.022690 147.807159,152.999405 146.361969,153.736053 
	C146.035538,153.495972 146.087006,153.012360 146.334961,152.794769 
	C147.719360,152.048996 148.855774,151.520844 149.992203,150.992676 
	C149.992203,150.992676 150.018341,151.018555 150.031525,151.032257 
z"/>
<path fill="#BB95B8" opacity="1.000000" stroke="none" 
	d="
M146.087006,153.012360 
	C146.087006,153.012360 146.035538,153.495972 145.998245,153.736023 
	C145.960953,153.976059 145.526123,154.029480 145.310822,154.063248 
	C145.095535,154.097015 145.021194,154.022186 144.973999,153.667618 
	C144.992188,152.892349 145.057556,152.471634 145.322388,152.167709 
	C145.758270,152.489792 145.946655,152.732422 146.087006,153.012360 
z"/>
<path fill="#A292A2" opacity="1.000000" stroke="none" 
	d="
M90.933258,159.332825 
	C91.208733,159.116028 91.486702,159.259033 91.842178,159.699219 
	C91.641724,159.797989 91.313751,159.696732 90.933258,159.332825 
z"/>
<path fill="#DD9FCA" opacity="1.000000" stroke="none" 
	d="
M116.993706,69.009666 
	C117.650284,67.937531 118.306862,66.865395 118.988701,65.387375 
	C119.013962,64.981491 119.094185,64.904587 119.094185,64.904587 
	C121.627724,67.419518 124.161263,69.934441 126.851303,72.945808 
	C127.007797,73.442253 126.996017,73.820702 126.636887,73.938087 
	C125.818459,75.705597 125.359169,77.355721 124.644356,79.143753 
	C124.181145,79.816521 123.973457,80.351379 123.467926,80.892380 
	C122.772873,80.892799 122.375671,80.887070 121.835068,80.581589 
	C120.127754,77.858185 118.563835,75.434509 117.001373,72.610588 
	C116.999802,71.143448 116.996750,70.076561 116.993706,69.009666 
M121.724236,72.528397 
	C121.990517,72.275276 122.256805,72.022156 122.523094,71.769035 
	C122.417595,71.658943 122.226631,71.447037 122.218948,71.453484 
	C121.938530,71.688858 121.675140,71.944519 121.724236,72.528397 
z"/>
<path fill="#E5B2D9" opacity="1.000000" stroke="none" 
	d="
M134.259094,80.006050 
	C138.529327,81.986511 141.462463,85.149139 142.673370,89.744682 
	C142.974304,90.886780 142.949310,92.114769 142.739197,93.777100 
	C141.597488,94.506714 140.790710,94.762505 139.779266,94.995087 
	C139.574631,94.971870 139.164871,94.929581 139.072632,94.653984 
	C138.629959,93.935593 138.279526,93.492798 137.981537,92.691010 
	C137.101593,91.143349 136.169189,89.954689 135.097443,88.571899 
	C134.745346,88.135040 134.497391,87.936211 134.138977,87.489426 
	C133.647430,86.784546 133.231125,86.371536 132.910889,85.585762 
	C133.424347,83.477348 133.841721,81.741699 134.259094,80.006050 
z"/>
<path fill="#DFB8D8" opacity="1.000000" stroke="none" 
	d="
M85.909233,57.021687 
	C87.571152,56.094994 89.728973,55.552391 90.800751,54.168610 
	C93.851219,50.230141 94.708328,50.067024 97.648010,54.478954 
	C97.370689,55.487904 97.225777,56.080452 97.294052,56.647320 
	C97.422119,57.710613 97.673531,58.759045 97.674309,59.866684 
	C97.474983,59.919708 97.075287,60.022873 96.624176,60.018219 
	C92.305435,60.291847 88.437805,60.570129 84.730888,60.623650 
	C85.230812,59.273155 85.570023,58.147419 85.909233,57.021687 
z"/>
<path fill="#E790A9" opacity="1.000000" stroke="none" 
	d="
M116.757050,68.987778 
	C116.996750,70.076561 116.999802,71.143448 116.624008,72.617004 
	C115.681297,74.302979 114.495392,75.686310 114.688171,76.839088 
	C115.045639,78.976639 116.208633,80.979477 116.851791,83.212448 
	C116.179489,83.444473 115.691582,83.502457 115.060501,83.403488 
	C114.678757,83.088814 114.420746,82.975266 114.099815,82.564301 
	C112.852837,80.405678 111.649345,78.588646 110.360580,76.561768 
	C110.275307,76.351921 110.056656,75.955147 110.118652,75.597870 
	C110.215469,74.516533 110.250290,73.792473 110.458206,72.857407 
	C110.685204,72.108284 110.739098,71.570168 110.861015,70.691772 
	C110.911934,69.890121 110.894836,69.428757 110.941376,68.716347 
	C111.059845,68.301582 111.114685,68.137871 111.419159,67.872345 
	C113.128700,68.149887 114.588608,68.529236 116.048515,68.908585 
	C116.048515,68.908585 116.520386,68.965881 116.757050,68.987778 
z"/>
<path fill="#6E5453" opacity="1.000000" stroke="none" 
	d="
M104.059006,55.782700 
	C105.153320,56.121243 106.247643,56.459785 107.660233,57.321289 
	C107.960472,58.306412 107.942421,58.768581 107.573212,59.434166 
	C106.176697,65.602066 105.131340,71.566536 103.786461,77.259315 
	C103.962868,71.017189 104.438789,65.046768 104.815002,58.748203 
	C104.496529,57.540939 104.277771,56.661819 104.059006,55.782700 
z"/>
<path fill="#F7B2E6" opacity="1.000000" stroke="none" 
	d="
M145.026443,99.171791 
	C145.016708,99.876106 145.006973,100.580414 144.681412,101.691048 
	C144.246628,103.393738 144.127640,104.690109 143.640045,105.983643 
	C141.838943,104.305443 140.406494,102.630074 139.127869,100.642181 
	C139.517426,99.209816 139.753159,98.089981 140.336563,96.964462 
	C141.463821,96.319145 142.243423,95.679497 143.023026,95.039848 
	C143.211227,95.035492 143.399429,95.031128 143.826050,95.421967 
	C144.385132,96.935371 144.705795,98.053581 145.026443,99.171791 
z"/>
<path fill="#CDB495" opacity="1.000000" stroke="none" 
	d="
M69.995956,44.961098 
	C69.906410,44.172050 69.816864,43.383007 69.747124,41.986427 
	C68.849640,40.905788 67.932343,40.432686 67.015045,39.959583 
	C67.005753,39.227627 66.996445,38.495670 66.976044,37.398796 
	C71.880692,32.405460 71.515602,39.250763 73.672989,40.591396 
	C73.485298,40.975121 73.036934,41.114502 72.800003,41.183975 
	C72.285049,41.527905 72.248055,41.831810 72.408684,42.468513 
	C72.304817,43.175365 72.244362,43.578865 72.086899,44.224060 
	C71.985771,44.639328 71.981651,44.812904 71.647064,45.002216 
	C70.876381,44.999001 70.436172,44.980049 69.995956,44.961098 
z"/>
<path fill="#716069" opacity="1.000000" stroke="none" 
	d="
M103.853806,55.550198 
	C104.277771,56.661819 104.496529,57.540939 104.489105,58.720245 
	C102.968742,60.099354 101.674561,61.178280 100.061142,62.094337 
	C99.119141,61.225533 98.496391,60.519596 97.873634,59.813660 
	C97.673531,58.759045 97.422119,57.710613 97.294052,56.647320 
	C97.225777,56.080452 97.370689,55.487904 97.710213,54.811409 
	C99.883560,54.916477 101.766075,55.117088 103.853806,55.550198 
z"/>
<path fill="#733D82" opacity="1.000000" stroke="none" 
	d="
M85.695129,56.908539 
	C85.570023,58.147419 85.230812,59.273155 84.533623,60.646255 
	C83.925255,60.994183 83.665291,61.050697 82.870575,61.011299 
	C81.654938,60.837440 80.964470,60.715454 80.352783,60.261757 
	C80.512260,59.036880 80.592957,58.143711 80.950241,57.067726 
	C80.532860,55.700726 79.838898,54.516544 79.102074,53.013897 
	C79.055946,52.481232 79.052681,52.267029 79.338303,51.843491 
	C79.920334,51.257862 80.213478,50.881573 80.506622,50.505283 
	C81.584068,51.864410 82.661514,53.223534 84.023247,55.023163 
	C84.449677,55.743172 84.673714,55.917397 84.979637,55.986340 
	C85.044579,56.319359 85.211716,56.589043 85.695129,56.908539 
z"/>
<path fill="#815978" opacity="1.000000" stroke="none" 
	d="
M134.118561,79.702049 
	C133.841721,81.741699 133.424347,83.477348 132.730621,85.597183 
	C132.454285,85.981377 132.101456,86.063736 131.647308,85.980118 
	C130.893524,85.827637 130.593887,85.758774 130.336624,85.437759 
	C130.329834,84.518326 130.280670,83.851051 130.289276,83.020325 
	C130.347061,82.856873 130.310837,82.512039 130.580780,82.392502 
	C130.898621,81.185326 130.946548,80.097687 130.934204,78.661186 
	C130.615540,77.654694 130.357117,76.997055 130.401245,76.157379 
	C130.899368,75.844284 131.094925,75.713242 131.290482,75.582199 
	C132.186325,76.854149 133.082184,78.126099 134.118561,79.702049 
z"/>
<path fill="#DD9FCA" opacity="1.000000" stroke="none" 
	d="
M115.979187,68.554810 
	C114.588608,68.529236 113.128700,68.149887 111.353271,67.547012 
	C111.014099,66.882423 110.990456,66.441353 110.966805,66.000290 
	C112.614487,66.733871 114.262177,67.467461 115.979187,68.554810 
z"/>
<path fill="#6E5453" opacity="1.000000" stroke="none" 
	d="
M108.958359,60.020344 
	C109.367355,61.648418 109.776352,63.276489 110.100784,65.629822 
	C109.657501,66.911728 109.298790,67.468376 108.841812,67.631699 
	C108.577354,64.833138 108.411163,62.427921 108.423355,60.032188 
	C108.601738,60.041668 108.958359,60.020344 108.958359,60.020344 
z"/>
<path fill="#855F64" opacity="1.000000" stroke="none" 
	d="
M108.940079,68.025032 
	C109.298790,67.468376 109.657501,66.911728 110.095123,66.016098 
	C110.174026,65.677124 110.567734,65.845802 110.767273,65.923050 
	C110.990456,66.441353 111.014099,66.882423 111.103630,67.648819 
	C111.114685,68.137871 111.059845,68.301582 110.754456,68.881790 
	C110.600266,69.876205 110.696632,70.454132 110.792999,71.032051 
	C110.739098,71.570168 110.685204,72.108284 110.132629,72.836334 
	C109.417709,73.014175 109.201462,73.002090 108.908020,72.679489 
	C108.867249,70.920998 108.903664,69.473015 108.940079,68.025032 
z"/>
<path fill="#9A8294" opacity="1.000000" stroke="none" 
	d="
M126.996017,73.820702 
	C126.996017,73.820702 127.007797,73.442253 127.006042,73.253403 
	C128.336121,73.714897 129.667953,74.365234 131.145126,75.298889 
	C131.094925,75.713242 130.899368,75.844284 130.120392,76.055496 
	C128.733246,76.124107 127.929512,76.112549 127.089485,75.717911 
	C127.034126,74.830124 127.015076,74.325409 126.996017,73.820702 
z"/>
<path fill="#2C5961" opacity="1.000000" stroke="none" 
	d="
M76.087761,44.642521 
	C76.761635,45.464008 77.435509,46.285492 78.120338,47.488235 
	C78.131294,47.869499 77.998428,48.001976 77.676880,48.031040 
	C76.817833,48.366795 76.280334,48.673481 75.542107,48.806488 
	C75.213120,48.123001 75.084869,47.613194 75.078850,46.787357 
	C75.496651,45.861725 75.792206,45.252125 76.087761,44.642521 
z"/>
<path fill="#4A946F" opacity="1.000000" stroke="none" 
	d="
M76.058128,44.383240 
	C75.792206,45.252125 75.496651,45.861725 74.946106,46.751801 
	C74.691132,47.032272 74.418930,46.996315 74.273117,46.688370 
	C73.635780,45.960804 73.144257,45.541183 72.677505,44.859776 
	C72.693787,44.422886 72.685287,44.247784 73.040054,43.873642 
	C73.827415,43.318626 74.251511,42.962650 74.675606,42.606674 
	C75.126572,43.112438 75.577530,43.618198 76.058128,44.383240 
z"/>
<path fill="#DD9FCA" opacity="1.000000" stroke="none" 
	d="
M118.971497,65.017334 
	C117.709091,64.421432 116.489136,63.789696 115.269188,63.157963 
	C115.491173,62.814960 115.713158,62.471958 115.935143,62.128956 
	C116.934715,62.843002 117.934288,63.557049 119.014023,64.587845 
	C119.094185,64.904587 119.013962,64.981491 118.971497,65.017334 
z"/>
<path fill="#E6A1D1" opacity="1.000000" stroke="none" 
	d="
M143.015015,94.777847 
	C142.243423,95.679497 141.463821,96.319145 140.334534,96.639435 
	C139.984528,95.886147 139.984222,95.452225 139.983917,95.018295 
	C140.790710,94.762505 141.597488,94.506714 142.698456,94.121353 
	C142.997437,94.166473 143.002228,94.341156 143.015015,94.777847 
z"/>
<path fill="#412F39" opacity="1.000000" stroke="none" 
	d="
M74.600830,42.304001 
	C74.251511,42.962650 73.827415,43.318626 72.921745,43.831253 
	C72.440170,43.987904 72.183907,43.982368 72.183907,43.982368 
	C72.244362,43.578865 72.304817,43.175365 72.554672,42.324615 
	C72.882812,41.638870 72.980431,41.384579 73.036934,41.114502 
	C73.036934,41.114502 73.485298,40.975121 73.715630,40.934616 
	C74.139328,41.263180 74.332695,41.632252 74.600830,42.304001 
z"/>
<path fill="#716069" opacity="1.000000" stroke="none" 
	d="
M145.044830,98.812157 
	C144.705795,98.053581 144.385132,96.935371 144.107635,95.443283 
	C144.443192,95.531631 144.735550,95.993858 145.102875,96.739449 
	C145.139633,97.499374 145.101425,97.975952 145.044830,98.812157 
z"/>
<path fill="#716069" opacity="1.000000" stroke="none" 
	d="
M108.977692,59.676704 
	C108.958359,60.020344 108.601738,60.041668 108.291901,59.854897 
	C107.982071,59.668125 107.924377,59.230747 107.924377,59.230747 
	C107.942421,58.768581 107.960472,58.306412 107.973518,57.497509 
	C108.311356,57.878201 108.654190,58.605633 108.977692,59.676704 
z"/>
<path fill="#2C5961" opacity="1.000000" stroke="none" 
	d="
M80.404800,50.248035 
	C80.213478,50.881573 79.920334,51.257862 79.239182,51.766655 
	C78.851166,51.899155 78.650848,51.749779 78.661407,51.425137 
	C78.702171,50.454739 78.732376,49.808983 78.865257,49.085655 
	C78.967926,49.008083 79.169289,48.847816 79.169289,48.847816 
	C79.547180,49.228809 79.925079,49.609798 80.404800,50.248035 
z"/>
<path fill="#DD9FCA" opacity="1.000000" stroke="none" 
	d="
M112.586197,61.245567 
	C112.544357,61.272331 112.628036,61.218811 112.586197,61.245567 
z"/>
<path fill="#DFB8D8" opacity="1.000000" stroke="none" 
	d="
M84.898102,55.794693 
	C84.673714,55.917397 84.449677,55.743172 84.262787,55.249645 
	C84.469093,55.170406 84.668602,55.359550 84.898102,55.794693 
z"/>
<path fill="#2C5961" opacity="1.000000" stroke="none" 
	d="
M78.196976,47.802509 
	C78.511642,47.947727 78.760628,48.159939 79.089455,48.609985 
	C79.169289,48.847816 78.967926,49.008083 78.675522,48.940628 
	C78.159401,48.624981 78.031166,48.334583 77.998428,48.001976 
	C77.998428,48.001976 78.131294,47.869499 78.196976,47.802509 
z"/>
<path fill="#E7E5E7" opacity="1.000000" stroke="none" 
	d="
M107.573212,59.434166 
	C107.924377,59.230747 107.982071,59.668125 108.113525,59.845413 
	C108.411163,62.427921 108.577354,64.833138 108.841805,67.631699 
	C108.903664,69.473015 108.867249,70.920998 108.813477,73.046478 
	C108.841270,74.471901 108.886429,75.219841 108.819435,76.341270 
	C108.647446,77.491913 108.587608,78.269066 108.318642,79.244865 
	C107.979286,80.513359 107.849060,81.583191 107.718834,82.653030 
	C108.363045,82.378387 109.007248,82.103745 110.125801,81.834305 
	C110.912720,81.791466 111.225296,81.743416 111.633224,81.820557 
	C111.728569,81.945740 111.659203,82.252708 111.491753,82.619308 
	C111.903328,83.656136 112.482353,84.326370 113.152145,85.323837 
	C113.786819,86.811417 114.330727,87.971764 115.040146,89.449226 
	C116.149506,89.840164 117.093338,89.913986 117.943306,90.210770 
	C117.849434,90.433746 117.718750,90.899612 117.413712,91.105179 
	C116.709938,93.221275 116.311195,95.131813 115.449539,97.025925 
	C104.561043,96.960648 94.135460,96.911781 83.766068,96.494461 
	C85.356651,93.892059 86.891045,91.658104 88.495918,89.321533 
	C86.308357,88.426781 84.061722,87.507874 81.745583,86.430023 
	C81.676079,86.271095 81.363068,86.121475 81.480072,85.937500 
	C81.597076,85.753525 81.268608,85.468575 81.268608,85.468575 
	C81.268608,85.468575 80.965706,85.780762 80.599152,85.589249 
	C76.737732,83.334152 73.519722,84.128891 70.516975,86.433426 
	C66.865425,89.235916 68.157295,93.010155 68.137466,96.708679 
	C62.822536,96.890205 58.003788,96.970779 53.185043,97.051361 
	C53.143688,95.209953 53.102333,93.368553 53.047729,91.051247 
	C53.034481,90.575348 53.021412,90.546631 53.305031,90.372223 
	C54.069229,89.802574 54.549805,89.407341 55.013630,89.005188 
	C54.996880,88.998260 55.007874,89.032814 55.335320,88.988144 
	C56.783348,87.971413 57.903931,86.999336 59.012180,86.013786 
	C58.999847,86.000305 59.023720,86.028870 59.362312,86.003479 
	C61.788052,84.283211 63.875195,82.588326 66.200226,81.169846 
	C71.494385,81.748077 75.627419,79.912506 79.230148,76.204201 
	C82.514511,76.972778 85.452431,77.656357 88.423523,78.133369 
	C88.656349,78.170746 89.120613,76.766663 89.266792,75.703903 
	C89.046227,74.609695 89.036179,73.844086 89.210007,73.008629 
	C89.393890,72.938782 89.773331,72.834915 90.090538,72.889038 
	C90.832314,72.989891 91.256882,73.036606 91.814606,73.420990 
	C93.261345,74.116081 94.574944,74.473488 96.199944,74.987106 
	C97.844429,76.069290 99.073425,77.273407 100.546715,77.824638 
	C101.549469,78.199821 102.894180,77.661079 104.085983,77.531013 
	C105.131340,71.566536 106.176697,65.602066 107.573212,59.434166 
z"/>
<path fill="#DAB3DC" opacity="1.000000" stroke="none" 
	d="
M72.981453,64.008804 
	C69.216080,66.615379 65.450706,69.221947 61.824703,71.732033 
	C61.460785,67.229301 61.042534,62.054337 60.624283,56.879372 
	C61.133717,57.190228 61.643154,57.501080 62.152592,57.811935 
	C64.788963,55.904129 67.425331,53.996319 70.432343,52.299007 
	C70.872627,52.678074 70.942261,52.846645 70.995895,53.383942 
	C71.340553,55.176262 71.701210,56.599854 72.051369,58.406883 
	C72.354393,60.529816 72.667923,62.269310 72.981453,64.008804 
z"/>
<path fill="#DAB0DB" opacity="1.000000" stroke="none" 
	d="
M52.073753,89.099693 
	C52.534069,88.086830 52.755318,86.834618 53.492188,86.098640 
	C59.899441,79.699142 66.399162,73.392212 73.331024,66.956879 
	C73.790657,66.855995 73.992386,66.990189 73.989548,67.379227 
	C73.210732,69.430161 72.479301,71.114792 71.646187,72.747551 
	C70.816628,74.373360 69.885002,75.947090 68.951149,77.644356 
	C68.904175,77.745056 68.544754,77.995834 68.155968,77.892204 
	C66.694550,78.509659 65.621918,79.230743 64.238327,80.025803 
	C62.292828,82.076141 60.658272,84.052505 59.023720,86.028870 
	C59.023720,86.028870 58.999847,86.000305 58.649178,85.949471 
	C57.201626,86.943359 56.104748,87.988083 55.007874,89.032806 
	C55.007874,89.032814 54.996880,88.998260 54.645035,88.951698 
	C53.553375,88.969986 52.813564,89.034836 52.073753,89.099693 
z"/>
<path fill="#725088" opacity="1.000000" stroke="none" 
	d="
M73.992386,66.990189 
	C73.992386,66.990189 73.790657,66.855995 73.675179,66.821754 
	C73.425461,66.090729 73.291222,65.393944 73.069221,64.352982 
	C72.667923,62.269310 72.354393,60.529816 72.305840,58.524094 
	C73.069412,58.509079 73.568008,58.760288 74.080070,59.374191 
	C74.406502,61.142761 74.719467,62.548637 75.012054,64.351212 
	C74.945923,65.543442 74.900177,66.338974 74.639076,67.097466 
	C74.423729,67.060417 73.992386,66.990189 73.992386,66.990189 
z"/>
<path fill="#412F39" opacity="1.000000" stroke="none" 
	d="
M69.957550,45.333511 
	C70.436172,44.980049 70.876381,44.999001 71.653534,44.997330 
	C71.990479,44.976707 71.971474,44.970764 71.954269,45.266602 
	C71.795761,45.928417 71.654457,46.294392 71.310326,46.908363 
	C71.005379,47.779819 70.903252,48.403278 70.801125,49.026741 
	C70.507133,47.919804 70.213142,46.812862 69.957550,45.333511 
z"/>
<path fill="#DEB2DF" opacity="1.000000" stroke="none" 
	d="
M67.055725,40.298752 
	C67.932343,40.432686 68.849640,40.905788 69.807526,41.713715 
	C68.930885,41.578327 68.013641,41.108124 67.055725,40.298752 
z"/>
<path fill="#2C5961" opacity="1.000000" stroke="none" 
	d="
M71.125610,51.012478 
	C71.083672,50.639584 71.041725,50.266689 71.534790,49.827522 
	C72.423340,49.828632 72.776886,49.896015 73.341980,50.092903 
	C73.785454,50.467751 73.963928,50.747242 74.022362,51.239479 
	C73.955780,51.418079 73.826027,51.776104 73.603714,51.795380 
	C73.381401,51.814655 72.935867,51.840843 72.764481,51.645908 
	C72.103928,51.304810 71.614769,51.158642 71.125610,51.012478 
z"/>
<path fill="#4A946F" opacity="1.000000" stroke="none" 
	d="
M73.130432,49.963402 
	C72.776886,49.896015 72.423340,49.828632 71.570320,49.547188 
	C71.070847,49.333126 70.828011,49.181461 70.814568,49.104103 
	C70.903252,48.403278 71.005379,47.779819 71.538849,47.188339 
	C72.343193,47.828018 72.716187,48.435711 73.090134,49.273823 
	C73.091080,49.504242 73.130432,49.963402 73.130432,49.963402 
z"/>
<path fill="#A5A0A4" opacity="1.000000" stroke="none" 
	d="
M52.171417,89.369659 
	C52.813564,89.034836 53.553375,88.969986 54.661781,88.958626 
	C54.549805,89.407341 54.069229,89.802574 53.298775,90.355270 
	C52.762291,90.221703 52.515686,89.930664 52.171417,89.369659 
z"/>
<path fill="#454759" opacity="1.000000" stroke="none" 
	d="
M71.028419,51.255562 
	C71.614769,51.158642 72.103928,51.304810 72.611984,51.838943 
	C72.424004,52.481464 72.232285,52.746964 71.794769,53.019787 
	C71.359848,53.015850 71.185867,53.015530 71.011887,53.015213 
	C70.942261,52.846645 70.872627,52.678074 70.754242,52.240295 
	C70.780746,51.813606 70.855988,51.656128 71.028419,51.255562 
z"/>
<path fill="#F4AAE8" opacity="1.000000" stroke="none" 
	d="
M150.979309,115.060135 
	C151.190613,115.667976 151.716736,116.712967 151.567642,116.820335 
	C146.583878,120.409271 149.068375,124.421486 150.535950,128.792969 
	C148.131058,132.783447 146.019745,136.377838 143.684143,139.803375 
	C142.976700,139.073425 142.493546,138.512314 142.017181,137.550201 
	C143.325424,132.458405 144.626862,127.767624 145.960770,122.652664 
	C146.380493,119.828041 146.767746,117.427589 147.409698,114.902435 
	C148.769363,114.871864 149.874329,114.965996 150.979309,115.060135 
z"/>
<path fill="#D4B1E1" opacity="1.000000" stroke="none" 
	d="
M142.010376,137.951202 
	C142.493546,138.512314 142.976700,139.073425 143.550781,140.160858 
	C142.286499,145.839844 142.356110,146.110046 145.257507,146.958633 
	C146.554581,146.533463 147.851639,146.108307 149.285461,145.638321 
	C149.485535,147.093826 149.707199,148.706299 149.960526,150.655716 
	C148.855774,151.520844 147.719360,152.048996 146.334961,152.794769 
	C145.946655,152.732422 145.758270,152.489792 144.893478,152.148926 
	C142.849945,151.999512 141.434769,151.985657 140.012421,151.730316 
	C140.005249,151.488846 139.989639,151.005920 140.226135,150.782745 
	C140.656265,147.391098 140.849930,144.222656 141.038956,140.710419 
	C141.359665,139.561493 141.685013,138.756348 142.010376,137.951202 
z"/>
<path fill="#8D6F8E" opacity="1.000000" stroke="none" 
	d="
M145.205002,146.549988 
	C142.356110,146.110046 142.286499,145.839844 143.775055,140.329712 
	C146.019745,136.377838 148.131058,132.783447 150.579956,129.177643 
	C149.602371,132.338501 148.148117,135.462204 147.017929,138.699051 
	C146.178299,141.103760 145.759018,143.655228 145.205002,146.549988 
z"/>
<path fill="#ECBEED" opacity="1.000000" stroke="none" 
	d="
M144.008667,105.986481 
	C144.127640,104.690109 144.246628,103.393738 144.677185,102.044113 
	C146.248245,103.237839 147.507721,104.484825 148.813568,106.277695 
	C148.260406,107.260361 147.660873,107.697144 146.795410,108.041397 
	C146.351318,107.888458 146.173157,107.828033 145.935104,107.479187 
	C145.254639,106.791252 144.634064,106.391739 144.007996,105.995613 
	C144.002518,105.999001 144.008667,105.986481 144.008667,105.986481 
z"/>
<path fill="#815978" opacity="1.000000" stroke="none" 
	d="
M147.061340,108.133926 
	C147.660873,107.697144 148.260406,107.260361 148.986633,106.569229 
	C149.713531,106.902596 150.890778,107.605080 150.801163,108.055588 
	C150.571198,109.211815 149.778793,110.256172 148.848114,111.707367 
	C147.981079,112.049461 147.477142,112.029434 146.692657,111.700294 
	C146.124954,110.917191 145.837784,110.443207 145.918030,109.772644 
	C146.544052,109.095360 146.802689,108.614639 147.061340,108.133926 
z"/>
<path fill="#E5B2D9" opacity="1.000000" stroke="none" 
	d="
M146.973206,112.009407 
	C147.477142,112.029434 147.981079,112.049461 148.865662,112.080048 
	C149.816681,112.873398 150.387039,113.656197 150.968353,114.749573 
	C149.874329,114.965996 148.769363,114.871864 147.372421,114.525650 
	C147.044708,113.518845 147.008957,112.764122 146.973206,112.009407 
z"/>
<path fill="#8E858F" opacity="1.000000" stroke="none" 
	d="
M151.129166,122.227974 
	C151.458267,122.145889 151.749405,122.353264 152.040558,122.560631 
	C151.826920,122.816299 151.613281,123.071960 151.399643,123.327629 
	C151.296844,123.057556 151.194031,122.787491 151.129166,122.227974 
z"/>
<path fill="#FDFDFD" opacity="1.000000" stroke="none" 
	d="
M83.709877,96.862915 
	C94.135460,96.911781 104.561043,96.960648 115.472778,97.034485 
	C115.958939,97.059448 115.953522,97.108330 115.952896,97.370689 
	C116.170204,98.091545 116.388123,98.550049 116.694458,99.346115 
	C115.294937,101.912857 113.807007,104.142029 112.133827,106.648735 
	C113.157761,107.096008 114.124939,107.518486 115.347488,108.007523 
	C115.813583,108.352280 116.024315,108.630478 116.197777,109.265701 
	C116.419418,110.755310 116.678329,111.887901 116.969017,113.365929 
	C117.744331,115.112953 118.487877,116.514534 118.925583,118.171600 
	C117.415817,122.307617 116.211891,126.188148 114.659103,130.192596 
	C110.133888,130.271866 111.041595,132.465164 112.325996,134.824265 
	C112.086700,135.045166 111.609772,135.414688 111.641800,135.465897 
	C115.475853,141.596115 113.431229,148.495148 114.240318,155.013367 
	C114.361214,155.987259 114.699585,156.934158 114.928535,158.290619 
	C107.229301,158.452072 99.538887,158.216461 91.410881,158.034546 
	C90.503967,157.751053 90.034637,157.413879 89.286568,156.962708 
	C89.026642,141.557068 92.334358,127.103615 99.510559,113.503975 
	C101.056755,110.573761 101.418198,107.018394 102.325386,103.750992 
	C101.709885,103.442604 101.094376,103.134216 100.478874,102.825829 
	C98.522369,104.893044 96.327766,106.785042 94.653526,109.059998 
	C89.409142,116.186081 82.710442,118.884102 73.902390,117.279572 
	C68.724869,116.336395 63.366470,116.386070 57.675385,115.982941 
	C57.089558,113.753128 56.917770,111.529564 56.417675,109.045609 
	C55.083130,106.070015 54.076889,103.354820 52.988197,100.291916 
	C52.969990,99.220604 53.034237,98.497002 53.141762,97.412384 
	C58.003788,96.970779 62.822536,96.890205 68.388077,96.899109 
	C71.055519,98.200020 72.976158,99.411453 75.268738,100.764053 
	C78.330421,99.557793 81.020149,98.210358 83.709877,96.862915 
z"/>
<path fill="#F7A9D9" opacity="1.000000" stroke="none" 
	d="
M118.051430,136.008667 
	C117.533905,135.421906 117.016380,134.835175 116.257126,133.762482 
	C117.331627,131.815338 118.647858,130.354141 119.981674,128.919983 
	C119.999245,128.947021 119.944962,128.981842 120.291519,128.856110 
	C121.533539,125.861778 122.429008,122.993164 123.557861,120.314209 
	C125.112053,121.734604 126.432861,122.965347 127.802940,124.597893 
	C127.279823,127.637611 126.707436,130.275513 125.968033,133.176788 
	C125.202202,133.995087 124.603378,134.550018 123.768410,135.180664 
	C123.532265,135.256393 123.052513,135.382233 122.829865,135.340302 
	C122.302765,135.400269 122.084702,135.597595 121.561943,135.907318 
	C120.131042,135.952362 119.091232,135.980515 118.051430,136.008667 
z"/>
<path fill="#9A8294" opacity="1.000000" stroke="none" 
	d="
M119.964096,128.892960 
	C118.647858,130.354141 117.331627,131.815338 115.996765,133.619354 
	C114.873383,134.112213 113.768639,134.262283 112.494942,134.618301 
	C111.041595,132.465164 110.133888,130.271866 115.037575,130.165100 
	C117.164642,129.640137 118.564377,129.266556 119.964096,128.892960 
z"/>
<path fill="#F881A8" opacity="1.000000" stroke="none" 
	d="
M123.950615,143.035980 
	C123.231911,143.019211 122.513199,143.002441 121.419434,142.650604 
	C121.021881,141.874252 120.999397,141.432983 120.976929,140.991730 
	C121.050934,140.533630 121.124939,140.075531 121.370583,139.185333 
	C121.661972,138.457489 121.576500,138.226730 121.285805,138.060959 
	C121.285805,138.060959 121.158440,137.667999 121.472015,137.384644 
	C122.809883,137.079651 123.834175,137.058014 124.911804,137.460236 
	C124.959740,139.595428 124.954338,141.306747 124.699295,143.018616 
	C124.449646,143.019165 123.950615,143.035980 123.950615,143.035980 
z"/>
<path fill="#6E5453" opacity="1.000000" stroke="none" 
	d="
M124.858467,137.036377 
	C123.834175,137.058014 122.809883,137.079651 121.414474,137.186279 
	C120.132896,137.066116 119.222435,136.860977 118.181702,136.332245 
	C119.091232,135.980515 120.131042,135.952362 121.771851,135.894379 
	C122.658295,135.786819 122.884850,135.626038 123.052513,135.382233 
	C123.052513,135.382233 123.532265,135.256393 124.044556,135.265930 
	C124.936783,135.334488 125.316719,135.393494 125.735275,135.674255 
	C125.823616,136.200577 125.812233,136.502838 125.512253,136.834137 
	C125.284752,136.865448 124.858467,137.036377 124.858467,137.036377 
z"/>
<path fill="#F3C3DD" opacity="1.000000" stroke="none" 
	d="
M120.739502,141.174011 
	C120.999397,141.432983 121.021881,141.874252 121.059998,142.646103 
	C120.902336,142.992157 120.729042,143.007629 120.295364,143.034164 
	C120.190689,142.482239 120.346390,141.919266 120.739502,141.174011 
z"/>
<path fill="#F38DC9" opacity="1.000000" stroke="none" 
	d="
M121.243362,138.283798 
	C121.576500,138.226730 121.661972,138.457489 121.443497,138.845062 
	C121.344772,138.936905 121.200928,138.506638 121.243362,138.283798 
z"/>
<path fill="#FB8BA0" opacity="1.000000" stroke="none" 
	d="
M124.108612,143.362732 
	C123.950615,143.035980 124.449646,143.019165 124.980934,142.908295 
	C126.039490,142.508179 126.566757,142.218933 127.425293,141.946426 
	C128.200516,141.987228 128.644485,142.011292 129.059998,142.432755 
	C129.343399,144.558746 129.655273,146.287338 129.979446,148.363388 
	C130.638702,149.500519 131.285675,150.290192 131.941162,151.310287 
	C131.949677,151.540726 131.985443,152.000519 132.029083,152.313721 
	C132.683411,153.102142 133.294098,153.577332 133.931183,154.359222 
	C133.978912,155.074539 134.000259,155.483139 134.021591,155.891754 
	C131.861237,154.728073 129.700867,153.564392 127.275513,152.181396 
	C126.095886,149.204544 125.181244,146.447006 124.108612,143.362732 
z"/>
<path fill="#E4C8AC" opacity="1.000000" stroke="none" 
	d="
M134.356354,155.903717 
	C134.000259,155.483139 133.978912,155.074539 134.180725,154.187073 
	C134.590805,153.154846 134.777725,152.601456 134.975204,151.628830 
	C134.983475,149.813644 134.981186,148.417694 135.264191,147.013290 
	C135.739655,146.997849 135.929810,146.990860 136.353821,147.207565 
	C136.751663,148.268066 136.915619,149.104904 137.056992,150.364594 
	C137.009781,152.198746 136.985168,153.610031 136.769897,155.116882 
	C136.336090,155.372849 136.153152,155.585129 136.030441,155.849274 
	C135.584000,155.871414 135.137558,155.893555 134.356354,155.903717 
z"/>
<path fill="#D9CCC7" opacity="1.000000" stroke="none" 
	d="
M136.960541,155.021317 
	C136.985168,153.610031 137.009781,152.198746 137.363983,150.410217 
	C138.458923,150.357300 139.224274,150.681610 139.989639,151.005920 
	C139.989639,151.005920 140.005249,151.488846 140.002991,152.124725 
	C140.016800,153.551193 140.032883,154.341766 140.048965,155.132355 
	C139.570969,155.405365 139.092987,155.678391 138.330658,155.977234 
	C137.864517,155.985626 137.682693,155.968201 137.236053,155.707138 
	C136.971237,155.463501 136.960541,155.021317 136.960541,155.021317 
z"/>
<path fill="#A56881" opacity="1.000000" stroke="none" 
	d="
M137.562408,156.917145 
	C138.200012,157.003067 138.451248,157.190292 138.752747,157.651154 
	C137.563507,157.866547 136.280579,157.866547 134.997650,157.866547 
	C134.970764,157.719742 134.943863,157.572922 134.916977,157.426117 
	C135.684464,157.270813 136.451965,157.115509 137.562408,156.917145 
z"/>
<path fill="#F9B2AB" opacity="1.000000" stroke="none" 
	d="
M136.769882,155.116882 
	C136.960541,155.021317 136.971237,155.463501 136.963104,155.683502 
	C136.954971,155.903503 136.490295,155.910156 136.260376,155.879715 
	C136.153152,155.585129 136.336090,155.372849 136.769882,155.116882 
z"/>
<path fill="#D2CBE3" opacity="1.000000" stroke="none" 
	d="
M140.411224,155.091980 
	C140.032883,154.341766 140.016800,153.551193 140.010162,152.366211 
	C141.434769,151.985657 142.849945,151.999512 144.694031,152.032135 
	C145.057556,152.471634 144.992188,152.892349 144.936249,153.630768 
	C143.554962,154.316193 142.164230,154.683899 140.411224,155.091980 
z"/>
<path fill="#D2B3B2" opacity="1.000000" stroke="none" 
	d="
M117.036194,83.038406 
	C116.208633,80.979477 115.045639,78.976639 114.688171,76.839088 
	C114.495392,75.686310 115.681297,74.302979 116.622543,73.017250 
	C118.563835,75.434509 120.127754,77.858185 121.722305,80.873474 
	C121.155228,82.030830 120.557526,82.596573 119.593391,83.155411 
	C118.496704,83.111816 117.766449,83.075111 117.036194,83.038406 
z"/>
<path fill="#7D7E87" opacity="1.000000" stroke="none" 
	d="
M119.959824,83.162308 
	C120.557526,82.596573 121.155228,82.030830 121.865692,81.173210 
	C122.375671,80.887070 122.772873,80.892799 123.781158,80.930069 
	C124.601227,80.975632 124.810226,80.989670 124.909401,81.245316 
	C124.507088,81.929115 124.214600,82.371315 123.624741,82.979202 
	C122.280853,83.481056 121.234322,83.817207 120.123329,83.907318 
	C120.025856,83.494957 119.992844,83.328636 119.959824,83.162308 
z"/>
<path fill="#454759" opacity="1.000000" stroke="none" 
	d="
M126.636887,73.938087 
	C127.015076,74.325409 127.034126,74.830124 127.047707,76.042114 
	C126.746864,77.546974 126.451492,78.344543 125.844025,79.089951 
	C125.321236,79.027145 125.110558,79.016495 124.899879,79.005844 
	C125.359169,77.355721 125.818459,75.705597 126.636887,73.938087 
z"/>
<path fill="#8D6F8E" opacity="1.000000" stroke="none" 
	d="
M124.644356,79.143753 
	C125.110558,79.016495 125.321236,79.027145 125.826309,79.398819 
	C125.996902,80.153885 125.873100,80.547928 125.566200,80.950562 
	C125.383102,80.959152 125.019226,81.003708 125.019226,81.003708 
	C124.810226,80.989670 124.601227,80.975632 124.078995,80.923920 
	C123.973457,80.351379 124.181145,79.816521 124.644356,79.143753 
z"/>
<path fill="#DEB2DF" opacity="1.000000" stroke="none" 
	d="
M121.566818,72.362900 
	C121.675140,71.944519 121.938530,71.688858 122.218948,71.453484 
	C122.226631,71.447037 122.417595,71.658943 122.523094,71.769035 
	C122.256805,72.022156 121.990517,72.275276 121.566818,72.362900 
z"/>
<path fill="#F38DC9" opacity="1.000000" stroke="none" 
	d="
M139.779266,94.995087 
	C139.984222,95.452225 139.984528,95.886147 139.986877,96.645111 
	C139.753159,98.089981 139.517426,99.209816 138.827362,100.604370 
	C138.283844,99.871918 138.194626,98.864761 138.367401,97.666199 
	C138.807907,96.626389 138.986389,95.777985 139.164871,94.929581 
	C139.164871,94.929581 139.574631,94.971870 139.779266,94.995087 
z"/>
<path fill="#BE78AD" opacity="1.000000" stroke="none" 
	d="
M135.236801,88.766022 
	C136.169189,89.954689 137.101593,91.143349 137.799500,92.697632 
	C137.565002,93.063255 137.200119,93.036720 136.911530,92.857849 
	C136.027130,91.498177 135.431320,90.317375 134.936676,89.044830 
	C135.037811,88.953079 135.236801,88.766022 135.236801,88.766022 
z"/>
<path fill="#A256A4" opacity="1.000000" stroke="none" 
	d="
M137.200119,93.036720 
	C137.200119,93.036720 137.565002,93.063255 137.747040,93.056625 
	C138.279526,93.492798 138.629959,93.935593 139.072632,94.653984 
	C138.986389,95.777985 138.807907,96.626389 138.279510,97.465225 
	C137.783585,97.187401 137.570847,96.991646 137.230621,96.489517 
	C137.179947,95.085991 137.190033,94.061356 137.200119,93.036720 
z"/>
<path fill="#BE78AD" opacity="1.000000" stroke="none" 
	d="
M132.101456,86.063736 
	C132.101456,86.063736 132.454285,85.981377 132.634552,85.969955 
	C133.231125,86.371536 133.647430,86.784546 134.050217,87.585609 
	C134.036697,87.973663 133.863327,88.169830 133.494980,88.110237 
	C132.377777,87.977203 131.628937,87.903755 131.009735,87.593781 
	C131.460083,86.926086 131.780762,86.494911 132.101456,86.063736 
z"/>
<path fill="#BE78AD" opacity="1.000000" stroke="none" 
	d="
M134.125458,87.877472 
	C134.497391,87.936211 134.745346,88.135040 135.097443,88.571899 
	C135.236801,88.766022 135.037811,88.953079 134.741852,88.919540 
	C134.200317,88.689064 134.006134,88.450340 133.863327,88.169830 
	C133.863327,88.169830 134.036697,87.973663 134.125458,87.877472 
z"/>
<path fill="#E6A1D1" opacity="1.000000" stroke="none" 
	d="
M83.395737,61.063164 
	C83.665291,61.050697 83.925255,60.994183 84.372910,60.871017 
	C88.437805,60.570129 92.305435,60.291847 96.601212,60.325180 
	C97.009430,61.046631 96.989494,61.456470 96.726700,61.899460 
	C96.483826,61.932610 95.997208,61.991081 95.578110,61.988029 
	C87.723137,60.897240 85.883415,67.476624 82.099045,71.435089 
	C81.381989,72.185127 80.195602,72.486473 79.128410,72.653488 
	C78.380493,70.883377 77.729935,69.454620 77.130501,67.756126 
	C77.468140,67.264931 77.754654,67.043488 78.269913,66.848923 
	C78.498672,66.875801 78.930801,66.716179 79.236465,66.617722 
	C80.826660,64.700562 82.111198,62.881863 83.395737,61.063164 
z"/>
<path fill="#806E73" opacity="1.000000" stroke="none" 
	d="
M96.969559,61.866306 
	C96.989494,61.456470 97.009430,61.046631 97.052322,60.329834 
	C97.075287,60.022873 97.474983,59.919708 97.674309,59.866684 
	C98.496391,60.519596 99.119141,61.225533 99.935036,62.378376 
	C99.271065,64.224487 98.413956,65.623703 97.247543,67.116196 
	C96.872765,68.091049 96.807289,68.972626 96.648643,70.115532 
	C96.041168,70.533203 95.526855,70.689537 95.019844,70.523300 
	C95.012741,69.765923 94.998337,69.331123 94.979385,68.527817 
	C94.957489,67.422829 94.940140,66.686340 94.958328,65.962143 
	C94.993866,65.974449 94.925400,65.961540 95.207809,65.778427 
	C95.983337,64.352310 96.476448,63.109306 96.969559,61.866306 
z"/>
<path fill="#855F64" opacity="1.000000" stroke="none" 
	d="
M111.659203,82.252708 
	C111.659203,82.252708 111.728569,81.945740 111.581955,81.511086 
	C111.299904,80.675903 111.164467,80.275368 110.894913,79.645142 
	C110.462753,79.227859 110.164703,79.040268 109.956818,78.504257 
	C110.179939,77.694427 110.312904,77.233025 110.445862,76.771614 
	C111.649345,78.588646 112.852837,80.405678 113.811905,82.600952 
	C113.374771,82.992699 113.182053,83.006203 112.760483,82.899445 
	C112.240829,82.603691 111.950012,82.428200 111.659203,82.252708 
z"/>
<path fill="#6E5453" opacity="1.000000" stroke="none" 
	d="
M112.989319,83.019707 
	C113.182053,83.006203 113.374771,82.992699 113.855392,82.942551 
	C114.420746,82.975266 114.678757,83.088814 115.012711,83.799683 
	C115.094482,84.617134 115.080872,84.881432 115.043877,85.521805 
	C115.070435,86.879501 115.120384,87.861137 115.095810,88.914505 
	C115.021286,88.986229 114.874619,89.132111 114.874619,89.132111 
	C114.330727,87.971764 113.786819,86.811417 113.208656,84.995056 
	C113.112701,83.899254 113.051010,83.459480 112.989319,83.019707 
z"/>
<path fill="#84714E" opacity="1.000000" stroke="none" 
	d="
M115.067261,85.145737 
	C115.080872,84.881432 115.094482,84.617134 115.155884,83.956635 
	C115.691582,83.502457 116.179489,83.444473 116.851791,83.212448 
	C117.766449,83.075111 118.496704,83.111816 119.593391,83.155411 
	C119.992844,83.328636 120.025856,83.494957 120.059906,84.099792 
	C120.060944,84.538300 119.943199,84.927261 119.614777,84.927521 
	C118.852791,84.985008 118.419235,85.042229 117.621246,85.056961 
	C116.526970,85.058228 115.797119,85.101982 115.067261,85.145737 
z"/>
<path fill="#412F39" opacity="1.000000" stroke="none" 
	d="
M110.360580,76.561768 
	C110.312904,77.233025 110.179939,77.694427 109.620811,78.543518 
	C108.972351,78.969543 108.750061,79.007874 108.527771,79.046211 
	C108.587608,78.269066 108.647446,77.491913 109.100754,76.342407 
	C109.681694,75.965088 109.869179,75.960114 110.056656,75.955147 
	C110.056656,75.955147 110.275307,76.351921 110.360580,76.561768 
z"/>
<path fill="#6E5453" opacity="1.000000" stroke="none" 
	d="
M110.118652,75.597870 
	C109.869179,75.960114 109.681694,75.965088 109.212906,75.968918 
	C108.886429,75.219841 108.841270,74.471901 108.890656,73.356987 
	C109.201462,73.002090 109.417709,73.014175 109.959534,73.047333 
	C110.250290,73.792473 110.215469,74.516533 110.118652,75.597870 
z"/>
<path fill="#A56881" opacity="1.000000" stroke="none" 
	d="
M110.861015,70.691772 
	C110.696632,70.454132 110.600266,69.876205 110.690811,69.132843 
	C110.894836,69.428757 110.911934,69.890121 110.861015,70.691772 
z"/>
<path fill="#E49896" opacity="1.000000" stroke="none" 
	d="
M97.556839,67.022919 
	C98.413956,65.623703 99.271065,64.224487 100.254272,62.541245 
	C101.674561,61.178280 102.968742,60.099354 104.588821,59.048386 
	C104.438789,65.046768 103.962868,71.017189 103.786461,77.259315 
	C102.894180,77.661079 101.549469,78.199821 100.546715,77.824638 
	C99.073425,77.273407 97.844429,76.069290 96.173843,74.651871 
	C95.561737,73.055580 95.287140,71.950722 95.012543,70.845871 
	C95.526855,70.689537 96.041168,70.533203 96.755447,69.763443 
	C97.155899,68.440987 97.356369,67.731949 97.556839,67.022919 
z"/>
<path fill="#F793EA" opacity="1.000000" stroke="none" 
	d="
M137.291382,96.868393 
	C137.570847,96.991646 137.783585,97.187401 138.017502,97.656631 
	C138.194626,98.864761 138.283844,99.871918 138.673553,100.916885 
	C140.406494,102.630074 141.838943,104.305443 143.640045,105.983643 
	C144.008667,105.986481 144.002518,105.999001 144.005493,106.264626 
	C144.013840,106.888733 144.019211,107.247223 143.791779,107.791687 
	C143.356247,108.310036 143.153534,108.642395 142.639160,108.810547 
	C139.883011,107.761993 137.438522,106.877640 134.945801,105.632622 
	C134.250992,103.192314 133.604416,101.112679 133.048706,98.664742 
	C134.523514,97.820427 135.907440,97.344414 137.291382,96.868393 
z"/>
<path fill="#84714E" opacity="1.000000" stroke="none" 
	d="
M72.086899,44.224060 
	C72.183907,43.982368 72.440170,43.987904 72.558487,44.030296 
	C72.685287,44.247784 72.693787,44.422886 72.499138,44.867245 
	C72.295990,45.136501 71.971474,44.970764 71.971474,44.970764 
	C71.971474,44.970764 71.990479,44.976707 71.984009,44.981594 
	C71.981651,44.812904 71.985771,44.639328 72.086899,44.224060 
z"/>
<path fill="#84714E" opacity="1.000000" stroke="none" 
	d="
M72.800003,41.183975 
	C72.980431,41.384579 72.882812,41.638870 72.598083,42.021271 
	C72.248055,41.831810 72.285049,41.527905 72.800003,41.183975 
z"/>
<path fill="#E8DCE8" opacity="1.000000" stroke="none" 
	d="
M80.673660,57.250546 
	C80.592957,58.143711 80.512260,59.036880 80.132156,60.365894 
	C79.520874,61.168636 79.209007,61.535526 78.687378,61.897854 
	C78.477608,61.893291 78.056786,61.908028 78.010971,61.553413 
	C77.566116,59.828659 77.167068,58.458523 76.931335,56.847752 
	C77.660690,56.136417 78.226738,55.665714 78.882706,55.476490 
	C79.539635,56.255493 80.106644,56.753017 80.673660,57.250546 
z"/>
<path fill="#6B5966" opacity="1.000000" stroke="none" 
	d="
M78.897141,61.902416 
	C79.209007,61.535526 79.520874,61.168636 80.053375,60.697605 
	C80.964470,60.715454 81.654938,60.837440 82.870575,61.011295 
	C82.111198,62.881863 80.826660,64.700562 79.264572,66.217400 
	C78.957062,64.577827 78.927101,63.240124 78.897141,61.902416 
z"/>
<path fill="#BD7FDB" opacity="1.000000" stroke="none" 
	d="
M80.950241,57.067726 
	C80.106644,56.753017 79.539635,56.255493 78.923706,55.185387 
	C78.864342,54.417591 78.853889,54.222378 78.931519,53.858978 
	C79.019600,53.690788 79.144943,53.332363 79.144943,53.332363 
	C79.838898,54.516544 80.532860,55.700726 80.950241,57.067726 
z"/>
<path fill="#2C5961" opacity="1.000000" stroke="none" 
	d="
M79.102074,53.013897 
	C79.144943,53.332363 79.019600,53.690788 78.734222,53.716267 
	C78.219521,53.497368 78.071922,53.210876 78.083374,52.677158 
	C78.285057,52.204800 78.448433,51.964046 78.650848,51.749779 
	C78.650848,51.749779 78.851166,51.899155 78.950287,51.975990 
	C79.052681,52.267029 79.055946,52.481232 79.102074,53.013897 
z"/>
<path fill="#D594CE" opacity="1.000000" stroke="none" 
	d="
M124.909401,81.245316 
	C125.019226,81.003708 125.383102,80.959152 125.944534,80.979797 
	C127.747810,81.728226 128.989655,82.456001 130.231506,83.183777 
	C130.280670,83.851051 130.329834,84.518326 130.081192,85.533127 
	C128.868011,86.598251 127.952614,87.315849 126.780273,88.009323 
	C126.351883,87.974686 126.180435,87.964157 125.863235,87.642471 
	C125.119011,85.825371 124.520561,84.319435 123.922104,82.813507 
	C124.214600,82.371315 124.507088,81.929115 124.909401,81.245316 
z"/>
<path fill="#E5B2D9" opacity="1.000000" stroke="none" 
	d="
M130.289276,83.020325 
	C128.989655,82.456001 127.747810,81.728226 126.127625,80.971207 
	C125.873100,80.547928 125.996902,80.153885 126.138412,79.450974 
	C126.451492,78.344543 126.746864,77.546974 127.084007,76.425201 
	C127.929512,76.112549 128.733246,76.124107 129.817841,76.237541 
	C130.357117,76.997055 130.615540,77.654694 130.663605,78.921219 
	C130.405792,80.524086 130.358307,81.518066 130.310837,82.512039 
	C130.310837,82.512039 130.347061,82.856873 130.289276,83.020325 
z"/>
<path fill="#895589" opacity="1.000000" stroke="none" 
	d="
M127.037216,88.033447 
	C127.952614,87.315849 128.868011,86.598251 130.038834,85.785278 
	C130.593887,85.758774 130.893524,85.827637 131.647308,85.980118 
	C131.780762,86.494911 131.460083,86.926086 130.751007,87.795860 
	C129.966248,89.173576 129.569870,90.112694 129.068985,91.008530 
	C128.964478,90.965256 128.742767,90.920319 128.471558,90.933990 
	C127.839348,90.922829 127.478355,90.898010 127.090469,90.518646 
	C127.054787,89.453896 127.046005,88.743668 127.037216,88.033447 
z"/>
<path fill="#D594CE" opacity="1.000000" stroke="none" 
	d="
M130.580780,82.392502 
	C130.358307,81.518066 130.405792,80.524086 130.723862,79.270081 
	C130.946548,80.097687 130.898621,81.185326 130.580780,82.392502 
z"/>
<path fill="#298FCB" opacity="1.000000" stroke="none" 
	d="
M78.661407,51.425137 
	C78.448433,51.964046 78.285057,52.204800 77.935913,52.681198 
	C77.711121,52.890358 77.417229,52.870022 77.301041,52.549545 
	C76.738304,51.432747 76.291748,50.636429 75.834213,49.623386 
	C75.823227,49.406662 75.742836,48.980164 75.742836,48.980164 
	C76.280334,48.673481 76.817833,48.366795 77.676880,48.031040 
	C78.031166,48.334583 78.159401,48.624981 78.572861,49.018200 
	C78.732376,49.808983 78.702171,50.454739 78.661407,51.425137 
z"/>
<path fill="#6D8D87" opacity="1.000000" stroke="none" 
	d="
M75.542107,48.806484 
	C75.742836,48.980164 75.823227,49.406662 75.606529,49.763557 
	C74.956200,50.433929 74.522575,50.747406 74.088943,51.060879 
	C73.963928,50.747242 73.785454,50.467751 73.341980,50.092903 
	C73.130432,49.963402 73.091080,49.504242 73.352043,49.098740 
	C73.881653,48.127598 74.150291,47.561958 74.418930,46.996315 
	C74.418930,46.996315 74.691132,47.032272 74.823868,47.067833 
	C75.084869,47.613194 75.213120,48.123001 75.542107,48.806484 
z"/>
<path fill="#B7C9AF" opacity="1.000000" stroke="none" 
	d="
M74.273117,46.688370 
	C74.150291,47.561958 73.881653,48.127598 73.351089,48.868320 
	C72.716187,48.435711 72.343193,47.828018 71.741684,46.940346 
	C71.654457,46.294392 71.795761,45.928417 71.954269,45.266602 
	C71.971474,44.970764 72.295990,45.136501 72.474365,45.129032 
	C73.144257,45.541183 73.635780,45.960804 74.273117,46.688370 
z"/>
<path fill="#161517" opacity="1.000000" stroke="none" 
	d="
M74.896797,100.622887 
	C72.976158,99.411453 71.055519,98.200020 68.884262,96.798157 
	C68.157295,93.010155 66.865425,89.235916 70.516975,86.433426 
	C73.519722,84.128891 76.737732,83.334152 80.591431,85.707794 
	C80.950264,86.017868 81.363068,86.121475 81.363068,86.121475 
	C81.363068,86.121475 81.676079,86.271095 81.826920,86.746353 
	C85.777771,91.169128 82.540703,93.740829 80.069359,96.301064 
	C78.517860,97.908363 76.632416,99.193314 74.896797,100.622887 
z"/>
<path fill="#DC83BC" opacity="1.000000" stroke="none" 
	d="
M79.225769,72.994850 
	C80.195602,72.486473 81.381989,72.185127 82.099045,71.435089 
	C85.883415,67.476624 87.723137,60.897240 95.421913,62.301903 
	C95.431671,63.733070 95.178535,64.847305 94.925400,65.961540 
	C94.925400,65.961540 94.993866,65.974449 94.632690,66.055321 
	C92.429443,67.939766 90.587379,69.743340 88.424789,71.771484 
	C86.625214,74.000336 85.581589,75.856506 89.477310,76.032509 
	C89.120613,76.766663 88.656349,78.170746 88.423523,78.133369 
	C85.452431,77.656357 82.514511,76.972778 79.266975,75.930344 
	C78.973305,75.152702 78.980820,74.786407 79.027252,74.060394 
	C79.119362,73.465401 79.172569,73.230125 79.225769,72.994850 
z"/>
<path fill="#E8DCE8" opacity="1.000000" stroke="none" 
	d="
M78.988342,74.420120 
	C78.980820,74.786407 78.973305,75.152702 78.928955,75.792847 
	C75.627419,79.912506 71.494385,81.748077 66.233765,80.963203 
	C66.029434,80.480164 66.111877,80.068718 66.390472,79.910675 
	C67.294304,79.167038 67.919533,78.581436 68.544754,77.995834 
	C68.544754,77.995834 68.904175,77.745056 69.230713,77.415215 
	C71.639626,75.362144 73.722000,73.638916 75.728882,71.978165 
	C77.021103,72.946281 78.004723,73.683205 78.988342,74.420120 
z"/>
<path fill="#454759" opacity="1.000000" stroke="none" 
	d="
M75.268738,100.764053 
	C76.632416,99.193314 78.517860,97.908363 80.069359,96.301064 
	C82.540703,93.740829 85.777771,91.169128 81.896423,86.905289 
	C84.061722,87.507874 86.308357,88.426781 88.495918,89.321533 
	C86.891045,91.658104 85.356651,93.892059 83.766068,96.494469 
	C81.020149,98.210358 78.330421,99.557793 75.268738,100.764053 
z"/>
<path fill="#CDB495" opacity="1.000000" stroke="none" 
	d="
M115.935692,97.050896 
	C116.311195,95.131813 116.709938,93.221275 117.673470,91.381058 
	C119.473274,91.565376 120.708298,91.679375 122.269539,91.890419 
	C123.043411,92.044838 123.491051,92.102226 123.940704,92.457428 
	C123.946220,93.152344 123.949730,93.549438 123.715141,94.172302 
	C123.329689,95.243256 123.182335,96.088425 123.064499,97.293533 
	C123.774055,99.127167 124.454109,100.600876 125.099365,102.312683 
	C125.064568,102.550789 125.000038,103.027702 124.766830,103.197784 
	C123.985893,103.876465 123.438164,104.385071 122.734283,104.565384 
	C121.527992,100.741180 120.477844,97.245270 119.427696,93.749367 
	C119.098526,93.786926 118.769356,93.824493 118.440186,93.862061 
	C118.129211,95.055161 117.818237,96.248253 117.259460,97.348015 
	C116.658943,97.205894 116.306236,97.157112 115.953522,97.108330 
	C115.953522,97.108330 115.958939,97.059448 115.935692,97.050896 
z"/>
<path fill="#A5A0A4" opacity="1.000000" stroke="none" 
	d="
M66.111877,80.068718 
	C66.111877,80.068718 66.029434,80.480164 65.995888,80.686798 
	C63.875195,82.588326 61.788052,84.283211 59.362312,86.003479 
	C60.658272,84.052505 62.292828,82.076141 64.630600,80.054520 
	C65.593178,80.029083 65.852531,80.048904 66.111877,80.068718 
z"/>
<path fill="#7A546C" opacity="1.000000" stroke="none" 
	d="
M88.745316,71.546921 
	C90.587379,69.743340 92.429443,67.939766 94.597145,66.043015 
	C94.940140,66.686340 94.957489,67.422829 94.721252,68.761230 
	C93.598557,70.286003 92.729446,71.208870 91.564774,72.099396 
	C90.770576,72.323013 90.271950,72.578964 89.773331,72.834915 
	C89.773331,72.834915 89.393890,72.938782 89.150299,72.623810 
	C88.852913,72.054863 88.799110,71.800888 88.745316,71.546921 
z"/>
<path fill="#9A8294" opacity="1.000000" stroke="none" 
	d="
M91.860344,72.131737 
	C92.729446,71.208870 93.598557,70.286003 94.725800,69.129730 
	C94.998337,69.331123 95.012741,69.765923 95.019844,70.523300 
	C95.287140,71.950722 95.561737,73.055580 95.862442,74.495667 
	C94.574944,74.473488 93.261345,74.116081 91.908440,73.191994 
	C91.869125,72.625320 91.860344,72.131737 91.860344,72.131737 
z"/>
<path fill="#7D7E87" opacity="1.000000" stroke="none" 
	d="
M108.318634,79.244865 
	C108.750061,79.007874 108.972351,78.969543 109.530655,78.891937 
	C110.164703,79.040268 110.462753,79.227859 110.592865,79.753860 
	C110.167099,80.671219 109.909279,81.250160 109.651459,81.829102 
	C109.007248,82.103745 108.363045,82.378387 107.718834,82.653030 
	C107.849060,81.583191 107.979286,80.513359 108.318634,79.244865 
z"/>
<path fill="#84714E" opacity="1.000000" stroke="none" 
	d="
M121.943314,91.793381 
	C120.708298,91.679375 119.473274,91.565376 117.978500,91.175491 
	C117.718750,90.899612 117.849434,90.433746 118.194595,90.184906 
	C118.708176,89.929817 118.876587,89.923561 119.413971,89.875359 
	C120.522438,89.854454 121.261917,89.875496 121.998886,90.214600 
	C121.978691,90.952896 121.960999,91.373131 121.943314,91.793381 
z"/>
<path fill="#A5A0A4" opacity="1.000000" stroke="none" 
	d="
M55.335320,88.988144 
	C56.104748,87.988083 57.201626,86.943359 58.661507,85.962952 
	C57.903931,86.999336 56.783348,87.971413 55.335320,88.988144 
z"/>
<path fill="#815978" opacity="1.000000" stroke="none" 
	d="
M88.424789,71.771484 
	C88.799110,71.800888 88.852913,72.054863 88.966415,72.693665 
	C89.036179,73.844086 89.046227,74.609695 89.266792,75.703903 
	C85.581589,75.856506 86.625214,74.000336 88.424789,71.771484 
z"/>
<path fill="#DFCCD6" opacity="1.000000" stroke="none" 
	d="
M112.760483,82.899445 
	C113.051010,83.459480 113.112701,83.899254 113.117882,84.667816 
	C112.482353,84.326370 111.903328,83.656136 111.491753,82.619308 
	C111.950012,82.428200 112.240829,82.603691 112.760483,82.899445 
z"/>
<path fill="#6E5453" opacity="1.000000" stroke="none" 
	d="
M119.044998,89.917313 
	C118.876587,89.923561 118.708176,89.929817 118.288467,89.961929 
	C117.093338,89.913986 116.149506,89.840164 115.040146,89.449226 
	C114.874619,89.132111 115.021286,88.986229 115.459076,88.937714 
	C116.889946,89.023987 117.883026,89.158775 118.904335,89.453293 
	C118.932556,89.613022 119.044998,89.917313 119.044998,89.917313 
z"/>
<path fill="#DFCCD6" opacity="1.000000" stroke="none" 
	d="
M110.125809,81.834305 
	C109.909279,81.250160 110.167099,80.671219 110.726974,79.983559 
	C111.164467,80.275368 111.299904,80.675903 111.486618,81.385902 
	C111.225296,81.743416 110.912720,81.791466 110.125809,81.834305 
z"/>
<path fill="#D9CCC7" opacity="1.000000" stroke="none" 
	d="
M91.564774,72.099396 
	C91.860344,72.131737 91.869125,72.625320 91.775284,72.854324 
	C91.256882,73.036606 90.832314,72.989891 90.090538,72.889038 
	C90.271950,72.578964 90.770576,72.323013 91.564774,72.099396 
z"/>
<path fill="#454759" opacity="1.000000" stroke="none" 
	d="
M81.480072,85.937500 
	C81.363068,86.121475 80.950264,86.017868 80.957985,85.899315 
	C80.965706,85.780762 81.268608,85.468575 81.268608,85.468575 
	C81.268608,85.468575 81.597076,85.753525 81.480072,85.937500 
z"/>
<path fill="#464E78" opacity="1.000000" stroke="none" 
	d="
M70.995895,53.383942 
	C71.185867,53.015530 71.359848,53.015850 71.908569,53.326199 
	C73.006165,55.198055 73.073692,57.844357 75.991653,56.163719 
	C76.039757,56.689224 76.042015,56.900345 75.868530,57.326897 
	C75.150719,58.032055 74.608658,58.521774 74.066605,59.011497 
	C73.568008,58.760288 73.069412,58.509079 72.316345,58.140656 
	C71.701210,56.599854 71.340553,55.176262 70.995895,53.383942 
z"/>
<path fill="#8E858F" opacity="1.000000" stroke="none" 
	d="
M79.027252,74.060394 
	C78.004723,73.683205 77.021103,72.946281 75.728882,71.978165 
	C73.722000,73.638916 71.639626,75.362144 69.277687,77.314514 
	C69.885002,75.947090 70.816628,74.373360 71.646187,72.747551 
	C72.479301,71.114792 73.210732,69.430161 73.989548,67.379227 
	C73.992386,66.990189 74.423729,67.060417 74.758514,67.288445 
	C75.279465,67.767868 75.522682,67.937431 75.953796,68.195206 
	C76.416206,68.252113 76.747787,68.138992 77.079369,68.025871 
	C77.729935,69.454620 78.380493,70.883377 79.128410,72.653488 
	C79.172569,73.230125 79.119362,73.465401 79.027252,74.060394 
z"/>
<path fill="#8E858F" opacity="1.000000" stroke="none" 
	d="
M66.390472,79.910675 
	C65.852531,80.048904 65.593178,80.029083 64.941551,79.980545 
	C65.621918,79.230743 66.694550,78.509659 68.155968,77.892204 
	C67.919533,78.581436 67.294304,79.167038 66.390472,79.910675 
z"/>
<path fill="#B368DF" opacity="1.000000" stroke="none" 
	d="
M74.080070,59.374187 
	C74.608658,58.521774 75.150719,58.032055 76.049294,57.312485 
	C76.405807,57.082634 76.768013,57.088387 76.768021,57.088387 
	C77.167068,58.458523 77.566116,59.828659 77.884987,61.863903 
	C76.880684,63.004177 75.956558,63.479343 75.032433,63.954514 
	C74.719467,62.548637 74.406502,61.142761 74.080070,59.374187 
z"/>
<path fill="#742673" opacity="1.000000" stroke="none" 
	d="
M75.012054,64.351212 
	C75.956558,63.479343 76.880684,63.004177 77.930801,62.218517 
	C78.056786,61.908028 78.477608,61.893291 78.687378,61.897854 
	C78.927101,63.240124 78.957062,64.577827 78.958908,66.315857 
	C78.930801,66.716179 78.498672,66.875801 78.221985,66.585777 
	C77.237846,66.872223 76.530403,67.448700 75.822960,68.025169 
	C75.522682,67.937431 75.279465,67.767868 74.973862,67.325493 
	C74.900177,66.338974 74.945923,65.543442 75.012054,64.351212 
z"/>
<path fill="#298FCB" opacity="1.000000" stroke="none" 
	d="
M75.945808,55.849339 
	C73.073692,57.844357 73.006165,55.198055 72.169518,53.329819 
	C72.232285,52.746964 72.424004,52.481464 72.783371,52.033882 
	C72.935867,51.840843 73.381401,51.814655 73.778641,52.076546 
	C74.765495,53.223171 75.355110,54.107906 75.945618,55.206814 
	C75.946510,55.420990 75.945808,55.849339 75.945808,55.849339 
z"/>
<path fill="#B2D7DE" opacity="1.000000" stroke="none" 
	d="
M75.944725,54.992638 
	C75.355110,54.107906 74.765495,53.223171 74.000954,52.057274 
	C73.826027,51.776104 73.955780,51.418079 74.022362,51.239479 
	C74.522575,50.747406 74.956200,50.433929 75.617508,49.980282 
	C76.291748,50.636429 76.738304,51.432747 77.172531,52.855919 
	C76.755043,53.986061 76.349884,54.489349 75.944725,54.992638 
z"/>
<path fill="#E578CD" opacity="1.000000" stroke="none" 
	d="
M146.692657,111.700294 
	C147.008957,112.764122 147.044708,113.518845 147.117737,114.650345 
	C146.767746,117.427589 146.380493,119.828041 145.629211,122.631195 
	C144.821121,123.018570 144.377075,123.003235 143.951294,122.576134 
	C144.284943,119.345436 143.968445,117.046799 140.795135,115.710213 
	C139.552322,115.186745 138.905075,113.249306 138.255630,111.848053 
	C138.820862,111.488525 139.117050,111.236778 139.497833,110.973709 
	C139.582428,110.962387 139.752914,110.954117 139.882950,111.210648 
	C140.445709,111.766167 140.878448,112.065147 141.311172,112.364120 
	C141.203384,111.820671 141.095596,111.277222 141.246979,110.541428 
	C142.854324,110.222458 144.202469,110.095833 145.550629,109.969215 
	C145.837784,110.443207 146.124954,110.917191 146.692657,111.700294 
z"/>
<path fill="#BC79C2" opacity="1.000000" stroke="none" 
	d="
M143.933014,122.987900 
	C144.377075,123.003235 144.821121,123.018570 145.596741,123.055367 
	C144.626862,127.767624 143.325424,132.458405 142.017181,137.550201 
	C141.685013,138.756348 141.359665,139.561493 140.763245,140.403900 
	C140.288757,137.299561 140.085373,134.157974 140.005676,130.775131 
	C140.130203,129.693878 140.131042,128.853897 140.476685,127.962219 
	C141.858673,126.269661 142.895844,124.628777 143.933014,122.987900 
z"/>
<path fill="#B8B6CA" opacity="1.000000" stroke="none" 
	d="
M139.881973,131.016388 
	C140.085373,134.157974 140.288757,137.299561 140.767883,140.747681 
	C140.849930,144.222656 140.656265,147.391098 140.226135,150.782745 
	C139.224274,150.681610 138.458923,150.357300 137.386566,149.987366 
	C136.915619,149.104904 136.751663,148.268066 136.323944,146.842911 
	C135.707062,144.852310 135.353928,143.450043 135.011566,141.644730 
	C134.648743,139.190765 134.275162,137.139847 134.018661,134.843353 
	C134.213089,134.433762 134.290421,134.269714 134.572052,134.181885 
	C136.478226,133.177536 138.180099,132.096970 139.881973,131.016388 
z"/>
<path fill="#ED7AD2" opacity="1.000000" stroke="none" 
	d="
M145.918030,109.772644 
	C144.202469,110.095833 142.854324,110.222458 140.941879,110.619202 
	C140.169357,110.910927 139.961136,110.932518 139.752914,110.954117 
	C139.752914,110.954117 139.582428,110.962387 139.268570,110.674637 
	C137.631165,109.924232 136.307632,109.461571 134.993317,108.997894 
	C135.002548,108.996872 135.001114,109.015404 135.073303,108.709137 
	C135.081650,107.990044 135.017792,107.577202 134.965256,106.871643 
	C134.982391,106.383705 134.988220,106.188499 134.994034,105.993286 
	C137.438522,106.877640 139.883011,107.761993 142.982697,108.803757 
	C144.210632,108.616280 144.783386,108.271385 145.517670,107.894081 
	C145.679199,107.861671 145.994980,107.767616 145.994980,107.767616 
	C146.173157,107.828033 146.351318,107.888458 146.795410,108.041397 
	C146.802689,108.614639 146.544052,109.095360 145.918030,109.772644 
z"/>
<path fill="#F7B2E6" opacity="1.000000" stroke="none" 
	d="
M145.935104,107.479187 
	C145.994980,107.767616 145.679199,107.861671 145.181488,107.819122 
	C144.464050,107.719627 144.244324,107.662666 144.024597,107.605705 
	C144.019211,107.247223 144.013840,106.888733 144.010956,106.261238 
	C144.634064,106.391739 145.254639,106.791252 145.935104,107.479187 
z"/>
<path fill="#E78CB7" opacity="1.000000" stroke="none" 
	d="
M117.507263,97.441353 
	C117.818237,96.248253 118.129211,95.055161 118.440186,93.862061 
	C118.769356,93.824493 119.098526,93.786926 119.427696,93.749367 
	C120.477844,97.245270 121.527992,100.741180 122.665436,104.840546 
	C122.820587,105.620468 122.888443,105.796936 122.974777,105.989212 
	C122.993240,106.005020 122.986359,105.956932 122.617836,105.888771 
	C121.766144,105.956108 121.282982,106.091599 120.509598,106.164658 
	C119.494049,106.257683 118.768730,106.413139 117.693962,106.612457 
	C116.593719,107.084526 115.842926,107.512749 115.092125,107.940964 
	C114.124939,107.518486 113.157761,107.096008 112.133827,106.648735 
	C113.807007,104.142029 115.294937,101.912857 116.799255,99.138885 
	C117.046181,98.209846 117.276726,97.825600 117.507263,97.441353 
z"/>
<path fill="#F8E8F8" opacity="1.000000" stroke="none" 
	d="
M119.981674,128.919983 
	C118.564377,129.266556 117.164642,129.640137 115.386436,130.041199 
	C116.211891,126.188148 117.415817,122.307617 119.100037,118.187836 
	C119.580338,117.948593 119.908844,118.073837 120.088394,118.431328 
	C120.160278,122.186493 120.052620,125.584167 119.944962,128.981842 
	C119.944962,128.981842 119.999245,128.947021 119.981674,128.919983 
z"/>
<path fill="#7E757B" opacity="1.000000" stroke="none" 
	d="
M119.908844,118.073837 
	C119.908844,118.073837 119.580338,117.948593 119.405884,117.932358 
	C118.487877,116.514534 117.744331,115.112953 117.229706,113.203354 
	C117.692268,112.362320 117.925903,112.029305 118.336441,111.852509 
	C118.513351,112.008736 118.891518,112.290710 118.933479,112.598251 
	C119.366356,113.631355 119.757263,114.356918 120.220123,115.327446 
	C120.573944,115.997414 120.855820,116.422417 121.005486,117.116959 
	C120.551804,117.615616 120.230324,117.844734 119.908844,118.073837 
z"/>
<path fill="#806E73" opacity="1.000000" stroke="none" 
	d="
M118.159531,111.696289 
	C117.925903,112.029305 117.692268,112.362320 117.197937,112.857910 
	C116.678329,111.887901 116.419418,110.755310 116.461861,109.249756 
	C117.106339,108.818924 117.449471,108.761047 117.862549,108.788696 
	C117.932487,108.874214 118.068222,109.048561 118.051636,109.380661 
	C118.076553,110.373940 118.118042,111.035110 118.159531,111.696289 
z"/>
<path fill="#412F39" opacity="1.000000" stroke="none" 
	d="
M117.792603,108.703186 
	C117.449471,108.761047 117.106339,108.818924 116.499130,108.892738 
	C116.024315,108.630478 115.813583,108.352280 115.347488,108.007523 
	C115.842926,107.512749 116.593719,107.084526 117.684334,106.972733 
	C117.946968,107.760498 117.869781,108.231842 117.792603,108.703186 
z"/>
<path fill="#E7E5E7" opacity="1.000000" stroke="none" 
	d="
M117.259460,97.348015 
	C117.276726,97.825600 117.046181,98.209846 116.710846,98.801315 
	C116.388123,98.550049 116.170204,98.091545 115.952896,97.370689 
	C116.306236,97.157112 116.658943,97.205894 117.259460,97.348015 
z"/>
<path fill="#DCB879" opacity="1.000000" stroke="none" 
	d="
M127.753677,124.196075 
	C126.432861,122.965347 125.112053,121.734604 123.490982,119.977661 
	C123.195023,119.223099 123.199326,118.994751 123.441391,118.516716 
	C122.731529,114.889626 121.783897,111.512222 120.859634,108.042862 
	C120.883011,107.950912 120.980705,107.788239 121.264786,107.730888 
	C122.028038,107.101341 122.507202,106.529137 122.986359,105.956932 
	C122.986359,105.956932 122.993240,106.005020 123.301826,106.033768 
	C123.826546,106.103676 124.042686,106.144844 124.394897,106.470024 
	C126.038681,108.826393 127.546410,110.898750 129.061996,113.308945 
	C129.133163,114.092552 129.196487,114.538315 129.172073,115.378860 
	C129.564774,117.855751 130.045212,119.937866 130.469193,122.227295 
	C130.412735,122.434608 130.316910,122.853539 129.948883,122.916885 
	C128.971786,123.385513 128.362732,123.790794 127.753677,124.196075 
z"/>
<path fill="#CCAB6E" opacity="1.000000" stroke="none" 
	d="
M127.802933,124.597885 
	C128.362732,123.790794 128.971786,123.385513 130.180130,123.091370 
	C131.254730,123.821785 131.730042,124.441078 132.166931,125.275658 
	C132.128494,125.490944 132.256424,125.909210 132.346344,126.265671 
	C133.080109,129.116638 133.723938,131.611145 134.367767,134.105652 
	C134.290421,134.269714 134.213089,134.433762 133.749664,134.800995 
	C131.914047,135.018539 130.464493,135.032883 128.743286,134.985992 
	C128.295563,134.865860 128.119507,134.806961 128.095978,134.510345 
	C128.297791,133.688339 128.347046,133.104019 128.396317,132.519699 
	C127.642563,132.650940 126.888809,132.782181 126.135056,132.913422 
	C126.707436,130.275513 127.279823,127.637611 127.802933,124.597885 
z"/>
<path fill="#9A8294" opacity="1.000000" stroke="none" 
	d="
M123.203621,118.766396 
	C123.199326,118.994751 123.195023,119.223099 123.257599,119.788002 
	C122.429008,122.993164 121.533539,125.861778 120.291519,128.856110 
	C120.052620,125.584167 120.160278,122.186493 120.088394,118.431335 
	C120.230324,117.844734 120.551804,117.615616 121.245361,117.271042 
	C122.146172,117.692528 122.674896,118.229462 123.203621,118.766396 
z"/>
<path fill="#F49780" opacity="1.000000" stroke="none" 
	d="
M125.968040,133.176788 
	C126.888809,132.782181 127.642563,132.650940 128.396317,132.519699 
	C128.347046,133.104019 128.297791,133.688339 127.715302,134.605469 
	C126.686943,135.109680 126.191795,135.281097 125.696648,135.452499 
	C125.316719,135.393494 124.936783,135.334488 124.280701,135.190216 
	C124.603378,134.550018 125.202202,133.995087 125.968040,133.176788 
z"/>
<path fill="#BA6751" opacity="1.000000" stroke="none" 
	d="
M122.829865,135.340302 
	C122.884850,135.626038 122.658295,135.786819 122.162949,135.877472 
	C122.084702,135.597595 122.302765,135.400269 122.829865,135.340302 
z"/>
<path fill="#E57677" opacity="1.000000" stroke="none" 
	d="
M127.094025,141.929688 
	C126.566757,142.218933 126.039490,142.508179 125.230583,142.907745 
	C124.954338,141.306747 124.959740,139.595428 124.911804,137.460236 
	C124.858467,137.036377 125.284752,136.865448 125.880554,136.915833 
	C126.973404,136.990860 127.470444,137.015503 127.939774,137.397156 
	C127.639374,139.146027 127.366699,140.537857 127.094025,141.929688 
z"/>
<path fill="#BA6751" opacity="1.000000" stroke="none" 
	d="
M127.967491,137.040131 
	C127.470444,137.015503 126.973404,136.990860 126.108047,136.884521 
	C125.812233,136.502838 125.823616,136.200577 125.735275,135.674255 
	C126.191795,135.281097 126.686943,135.109680 127.562759,134.843155 
	C128.119507,134.806961 128.295563,134.865860 128.652451,135.252335 
	C128.544678,136.066650 128.256088,136.553391 127.967491,137.040131 
z"/>
<path fill="#E7AD7B" opacity="1.000000" stroke="none" 
	d="
M127.939774,137.397171 
	C128.256088,136.553391 128.544678,136.066650 128.924118,135.313568 
	C130.464493,135.032883 131.914047,135.018539 133.632584,135.046570 
	C134.275162,137.139847 134.648743,139.190765 134.670044,141.591156 
	C132.574661,141.972214 130.831558,142.003784 129.088455,142.035370 
	C128.644485,142.011292 128.200516,141.987228 127.425285,141.946426 
	C127.366699,140.537857 127.639374,139.146027 127.939774,137.397171 
z"/>
<path fill="#F1BB94" opacity="1.000000" stroke="none" 
	d="
M129.059998,142.432770 
	C130.831558,142.003784 132.574661,141.972214 134.659271,141.994202 
	C135.353928,143.450043 135.707062,144.852310 136.090088,146.619232 
	C135.929810,146.990860 135.739655,146.997849 134.930145,147.008331 
	C133.536255,147.341629 132.761719,147.671387 131.650772,148.000839 
	C130.865295,148.005661 130.416214,148.010788 129.967148,148.015930 
	C129.655273,146.287338 129.343399,144.558746 129.059998,142.432770 
z"/>
<path fill="#F5C8A2" opacity="1.000000" stroke="none" 
	d="
M131.987183,148.001144 
	C132.761719,147.671387 133.536255,147.341629 134.644836,147.016815 
	C134.981186,148.417694 134.983475,149.813644 134.603882,151.615875 
	C133.476486,152.014954 132.730957,152.007736 131.985443,152.000519 
	C131.985443,152.000519 131.949677,151.540726 131.964020,150.924393 
	C131.981308,149.539093 131.984253,148.770111 131.987183,148.001144 
z"/>
<path fill="#F9B2AB" opacity="1.000000" stroke="none" 
	d="
M132.029083,152.313721 
	C132.730957,152.007736 133.476486,152.014954 134.593323,152.035126 
	C134.777725,152.601456 134.590805,153.154846 134.154327,153.880371 
	C133.294098,153.577332 132.683411,153.102142 132.029083,152.313721 
z"/>
<path fill="#F9B2AB" opacity="1.000000" stroke="none" 
	d="
M131.650772,148.000839 
	C131.984253,148.770111 131.981308,149.539093 131.955505,150.693954 
	C131.285675,150.290192 130.638702,149.500519 129.979446,148.363373 
	C130.416214,148.010788 130.865295,148.005661 131.650772,148.000839 
z"/>
<path fill="#B6A5C0" opacity="1.000000" stroke="none" 
	d="
M123.624741,82.979202 
	C124.520561,84.319435 125.119011,85.825371 125.690369,87.885086 
	C125.111473,88.641418 124.559677,88.843956 123.709976,89.021568 
	C123.213112,88.986862 123.014168,88.977074 122.598679,88.735069 
	C121.569145,87.310997 120.756172,86.119133 119.943199,84.927261 
	C119.943199,84.927261 120.060944,84.538300 120.124374,84.345833 
	C121.234322,83.817207 122.280853,83.481056 123.624741,82.979202 
z"/>
<path fill="#E99CE0" opacity="1.000000" stroke="none" 
	d="
M129.173492,91.051811 
	C129.569870,90.112694 129.966248,89.173576 130.621353,88.032379 
	C131.628937,87.903755 132.377777,87.977203 133.494980,88.110237 
	C134.006134,88.450340 134.200317,88.689064 134.640701,89.011292 
	C135.431320,90.317375 136.027130,91.498177 136.911530,92.857849 
	C137.190033,94.061356 137.179947,95.085991 137.230621,96.489510 
	C135.907440,97.344414 134.523514,97.820427 132.730118,98.592560 
	C131.271606,96.276382 130.222549,93.664093 129.173492,91.051811 
z"/>
<path fill="#7A546C" opacity="1.000000" stroke="none" 
	d="
M95.207809,65.778427 
	C95.178535,64.847305 95.431671,63.733070 95.841003,62.304958 
	C95.997208,61.991081 96.483826,61.932610 96.726692,61.899460 
	C96.476448,63.109306 95.983337,64.352310 95.207809,65.778427 
z"/>
<path fill="#C035B8" opacity="1.000000" stroke="none" 
	d="
M75.953796,68.195206 
	C76.530403,67.448700 77.237846,66.872223 77.993225,66.558899 
	C77.754654,67.043488 77.468140,67.264931 77.130501,67.756126 
	C76.747787,68.138992 76.416206,68.252113 75.953796,68.195206 
z"/>
<path fill="#6E5453" opacity="1.000000" stroke="none" 
	d="
M97.247543,67.116196 
	C97.356369,67.731949 97.155899,68.440987 96.848618,69.502106 
	C96.807289,68.972626 96.872765,68.091049 97.247543,67.116196 
z"/>
<path fill="#DCA0A1" opacity="1.000000" stroke="none" 
	d="
M118.876114,89.293556 
	C117.883026,89.158775 116.889946,89.023987 115.533600,88.865990 
	C115.120384,87.861137 115.070435,86.879501 115.043877,85.521805 
	C115.797119,85.101982 116.526970,85.058228 117.673080,85.409584 
	C118.351585,86.967651 118.613853,88.130600 118.876114,89.293556 
z"/>
<path fill="#CCB5A4" opacity="1.000000" stroke="none" 
	d="
M118.904335,89.453293 
	C118.613853,88.130600 118.351585,86.967651 118.037498,85.452072 
	C118.419235,85.042229 118.852791,84.985008 119.614777,84.927521 
	C120.756172,86.119133 121.569145,87.310997 122.525314,88.935532 
	C122.485802,89.594383 122.263435,89.770493 122.001404,89.896545 
	C121.261917,89.875496 120.522438,89.854454 119.413971,89.875359 
	C119.044998,89.917313 118.932556,89.613022 118.904335,89.453293 
z"/>
<path fill="#CE90DD" opacity="1.000000" stroke="none" 
	d="
M129.068985,91.008530 
	C130.222549,93.664093 131.271606,96.276382 132.639252,98.960854 
	C133.604416,101.112679 134.250992,103.192314 134.945801,105.632622 
	C134.988220,106.188499 134.982391,106.383705 134.738068,106.852676 
	C134.499542,107.126427 134.043549,107.134071 133.707306,107.053665 
	C131.917099,105.007454 130.463135,103.041649 129.032089,100.727104 
	C129.004745,99.916061 128.954514,99.453751 128.939072,98.545753 
	C128.896835,95.706810 128.819809,93.313568 128.742767,90.920319 
	C128.742767,90.920319 128.964478,90.965256 129.068985,91.008530 
z"/>
<path fill="#BE78AD" opacity="1.000000" stroke="none" 
	d="
M143.791779,107.791687 
	C144.244324,107.662666 144.464050,107.719627 145.019958,107.851532 
	C144.783386,108.271385 144.210632,108.616280 143.294357,108.967957 
	C143.153534,108.642395 143.356247,108.310036 143.791779,107.791687 
z"/>
<path fill="#7E757B" opacity="1.000000" stroke="none" 
	d="
M75.945618,55.206814 
	C76.349884,54.489349 76.755043,53.986061 77.288712,53.176395 
	C77.417229,52.870022 77.711121,52.890358 77.858582,52.886314 
	C78.071922,53.210876 78.219521,53.497368 78.646149,53.884457 
	C78.853889,54.222378 78.864342,54.417591 78.833786,54.903908 
	C78.226738,55.665714 77.660690,56.136417 76.931335,56.847752 
	C76.768013,57.088387 76.405807,57.082634 76.225037,57.097050 
	C76.042015,56.900345 76.039757,56.689224 75.991653,56.163719 
	C75.945808,55.849339 75.946510,55.420990 75.945618,55.206814 
z"/>
<path fill="#7D7098" opacity="1.000000" stroke="none" 
	d="
M124.007889,89.046494 
	C124.559677,88.843956 125.111473,88.641418 125.836136,88.196259 
	C126.180435,87.964157 126.351883,87.974686 126.780273,88.009323 
	C127.046005,88.743668 127.054787,89.453896 127.056358,90.556076 
	C127.049149,90.948029 126.981560,91.019051 126.627831,91.021591 
	C125.567741,91.069389 124.861389,91.114647 124.109528,90.808701 
	C124.045319,89.987167 124.026604,89.516838 124.007889,89.046494 
z"/>
<path fill="#7D7098" opacity="1.000000" stroke="none" 
	d="
M128.471558,90.933990 
	C128.819809,93.313568 128.896835,95.706810 128.641235,98.548508 
	C127.911232,98.996078 127.513840,98.995209 127.098755,98.760284 
	C127.081062,98.526245 127.036400,98.058945 127.075401,97.619308 
	C127.070122,95.126137 127.025841,93.072594 126.981560,91.019051 
	C126.981560,91.019051 127.049149,90.948029 127.083260,90.910606 
	C127.478355,90.898010 127.839348,90.922829 128.471558,90.933990 
z"/>
<path fill="#AFB7C5" opacity="1.000000" stroke="none" 
	d="
M126.627831,91.021591 
	C127.025841,93.072594 127.070122,95.126137 126.811005,97.497810 
	C125.999626,97.539024 125.491646,97.262108 124.986496,96.645035 
	C124.643959,95.518761 124.298599,94.732643 123.953247,93.946526 
	C123.949730,93.549438 123.946220,93.152344 123.998734,92.207550 
	C124.088173,91.493210 124.121597,91.326561 124.155029,91.159904 
	C124.861389,91.114647 125.567741,91.069389 126.627831,91.021591 
z"/>
<path fill="#B7C9AF" opacity="1.000000" stroke="none" 
	d="
M124.983665,96.985199 
	C125.491646,97.262108 125.999626,97.539024 126.772003,97.937439 
	C127.036400,98.058945 127.081062,98.526245 126.943466,99.029816 
	C126.248627,100.380455 125.691391,101.227516 125.134155,102.074585 
	C124.454109,100.600876 123.774055,99.127167 123.388458,97.317459 
	C124.116493,96.982697 124.550079,96.983940 124.983665,96.985199 
z"/>
<path fill="#6D8D87" opacity="1.000000" stroke="none" 
	d="
M125.099358,102.312683 
	C125.691391,101.227516 126.248627,100.380455 126.961159,99.263855 
	C127.513840,98.995209 127.911232,98.996078 128.606445,98.994202 
	C128.954514,99.453751 129.004745,99.916061 128.767395,100.839432 
	C127.746483,101.911095 127.013168,102.521683 125.959572,103.110077 
	C125.426208,103.067825 125.213120,103.047760 125.000038,103.027702 
	C125.000038,103.027702 125.064568,102.550789 125.099358,102.312683 
z"/>
<path fill="#988B47" opacity="1.000000" stroke="none" 
	d="
M124.766830,103.197784 
	C125.213120,103.047760 125.426208,103.067825 125.865158,103.408012 
	C125.480301,104.547424 124.869560,105.366722 124.258827,106.186012 
	C124.042686,106.144844 123.826546,106.103676 123.283356,106.017960 
	C122.888443,105.796936 122.820587,105.620468 122.821579,105.168839 
	C123.438164,104.385071 123.985893,103.876465 124.766830,103.197784 
z"/>
<path fill="#ADA7A6" opacity="1.000000" stroke="none" 
	d="
M124.986496,96.645035 
	C124.550079,96.983940 124.116493,96.982697 123.358948,96.957520 
	C123.182335,96.088425 123.329689,95.243256 123.715149,94.172302 
	C124.298599,94.732643 124.643959,95.518761 124.986496,96.645035 
z"/>
<path fill="#7E757B" opacity="1.000000" stroke="none" 
	d="
M124.109528,90.808701 
	C124.121597,91.326561 124.088173,91.493210 123.996727,91.909729 
	C123.491051,92.102226 123.043411,92.044838 122.269539,91.890411 
	C121.960999,91.373131 121.978691,90.952896 121.998886,90.214600 
	C122.263435,89.770493 122.485802,89.594383 122.741867,89.167740 
	C123.014168,88.977074 123.213112,88.986862 123.709976,89.021576 
	C124.026604,89.516838 124.045319,89.987167 124.109528,90.808701 
z"/>
<path fill="#E094E9" opacity="1.000000" stroke="none" 
	d="
M143.951294,122.576134 
	C142.895844,124.628777 141.858673,126.269661 140.268555,127.645126 
	C137.431519,121.244797 135.147446,115.109879 133.147827,108.971970 
	C133.620865,108.966431 133.809433,108.963882 134.247620,108.996719 
	C134.665176,109.026543 134.833145,109.020973 135.001114,109.015404 
	C135.001114,109.015404 135.002548,108.996872 135.092087,109.294342 
	C136.116608,110.379814 137.051605,111.167824 137.986588,111.955833 
	C138.905075,113.249306 139.552322,115.186745 140.795135,115.710213 
	C143.968445,117.046799 144.284943,119.345436 143.951294,122.576134 
z"/>
<path fill="#A256A4" opacity="1.000000" stroke="none" 
	d="
M138.255630,111.848053 
	C137.051605,111.167824 136.116608,110.379814 135.082855,109.295364 
	C136.307632,109.461571 137.631165,109.924232 139.183990,110.685959 
	C139.117050,111.236778 138.820862,111.488525 138.255630,111.848053 
z"/>
<path fill="#A256A4" opacity="1.000000" stroke="none" 
	d="
M139.882950,111.210648 
	C139.961136,110.932518 140.169357,110.910927 140.682709,110.811554 
	C141.095596,111.277222 141.203384,111.820671 141.311172,112.364120 
	C140.878448,112.065147 140.445709,111.766167 139.882950,111.210648 
z"/>
<path fill="#A0BDD5" opacity="1.000000" stroke="none" 
	d="
M132.863373,108.974960 
	C135.147446,115.109879 137.431519,121.244797 139.923737,127.696808 
	C140.131042,128.853897 140.130203,129.693878 140.005676,130.775131 
	C138.180099,132.096970 136.478226,133.177536 134.572052,134.181885 
	C133.723938,131.611145 133.080109,129.116638 132.458679,126.181107 
	C132.613754,125.437302 132.521851,125.210739 132.205368,125.060371 
	C131.730042,124.441078 131.254730,123.821785 130.548157,123.028015 
	C130.316910,122.853539 130.412735,122.434608 130.748474,122.111862 
	C130.476074,119.520767 129.867935,117.252426 129.259811,114.984077 
	C129.196487,114.538315 129.133163,114.092552 129.315308,113.072510 
	C130.661621,111.323799 131.762497,110.149384 132.863373,108.974960 
z"/>
<path fill="#A256A4" opacity="1.000000" stroke="none" 
	d="
M135.073303,108.709137 
	C134.833145,109.020973 134.665176,109.026543 134.243591,108.691643 
	C134.007843,107.945473 134.025696,107.539772 134.043549,107.134071 
	C134.043549,107.134071 134.499542,107.126427 134.726746,107.145401 
	C135.017792,107.577202 135.081650,107.990044 135.073303,108.709137 
z"/>
<path fill="#855F64" opacity="1.000000" stroke="none" 
	d="
M117.862541,108.788696 
	C117.869781,108.231842 117.946968,107.760498 118.033783,106.928879 
	C118.768730,106.413139 119.494049,106.257683 120.553749,106.422943 
	C120.918991,107.091850 120.949844,107.440048 120.980705,107.788239 
	C120.980705,107.788239 120.883011,107.950912 120.607750,108.032074 
	C119.864937,108.289864 119.397385,108.466499 118.696617,108.706879 
	C118.463402,108.770638 118.068222,109.048561 118.068222,109.048561 
	C118.068222,109.048561 117.932487,108.874214 117.862541,108.788696 
z"/>
<path fill="#988B47" opacity="1.000000" stroke="none" 
	d="
M121.264786,107.730888 
	C120.949844,107.440048 120.918991,107.091850 120.843979,106.485382 
	C121.282982,106.091599 121.766144,105.956108 122.617836,105.888771 
	C122.507202,106.529137 122.028038,107.101341 121.264786,107.730888 
z"/>
<path fill="#F69BAC" opacity="1.000000" stroke="none" 
	d="
M118.929832,108.643127 
	C119.397385,108.466499 119.864937,108.289864 120.584373,108.124023 
	C121.783897,111.512222 122.731529,114.889626 123.441391,118.516716 
	C122.674896,118.229462 122.146172,117.692528 121.377571,117.001503 
	C120.855820,116.422417 120.573944,115.997414 120.440018,115.112328 
	C120.111137,113.361267 119.634308,112.070305 119.126732,110.423859 
	C119.040604,109.593292 118.985222,109.118202 118.929832,108.643127 
z"/>
<path fill="#F3C3DD" opacity="1.000000" stroke="none" 
	d="
M119.157478,110.779335 
	C119.634308,112.070305 120.111137,113.361267 120.368073,114.867355 
	C119.757263,114.356918 119.366356,113.631355 118.995056,112.218979 
	C119.062286,111.281219 119.109886,111.030273 119.157478,110.779335 
z"/>
<path fill="#DFCCD6" opacity="1.000000" stroke="none" 
	d="
M119.126732,110.423859 
	C119.109886,111.030273 119.062286,111.281219 118.953094,111.911438 
	C118.891518,112.290710 118.513351,112.008736 118.336441,111.852509 
	C118.118042,111.035110 118.076553,110.373940 118.051636,109.380661 
	C118.068222,109.048561 118.463402,108.770638 118.696617,108.706879 
	C118.985222,109.118202 119.040604,109.593292 119.126732,110.423859 
z"/>
<path fill="#AFB7C5" opacity="1.000000" stroke="none" 
	d="
M133.707306,107.053665 
	C134.025696,107.539772 134.007843,107.945473 133.994003,108.656250 
	C133.809433,108.963882 133.620865,108.966431 133.147827,108.971970 
	C131.762497,110.149384 130.661621,111.323799 129.307434,112.734665 
	C127.546410,110.898750 126.038681,108.826393 124.394897,106.470024 
	C124.869560,105.366722 125.480301,104.547424 126.185440,103.430206 
	C127.013168,102.521683 127.746483,101.911095 128.744492,101.188171 
	C130.463135,103.041649 131.917099,105.007454 133.707306,107.053665 
z"/>
<path fill="#AFB7C5" opacity="1.000000" stroke="none" 
	d="
M129.172073,115.378860 
	C129.867935,117.252426 130.476074,119.520767 130.804932,121.904541 
	C130.045212,119.937866 129.564774,117.855751 129.172073,115.378860 
z"/>
<path fill="#AFB7C5" opacity="1.000000" stroke="none" 
	d="
M132.166931,125.275658 
	C132.521851,125.210739 132.613754,125.437302 132.368744,125.824638 
	C132.256424,125.909210 132.128494,125.490944 132.166931,125.275658 
z"/>
</svg>