<?xml version="1.0" standalone="no"?>
<!DOCTYPE svg PUBLIC "-//W3C//DTD SVG 20010904//EN"
 "http://www.w3.org/TR/2001/REC-SVG-20010904/DTD/svg10.dtd">
<svg version="1.0" xmlns="http://www.w3.org/2000/svg"
 width="192.000000pt" height="192.000000pt" viewBox="0 0 192.000000 192.000000"
 preserveAspectRatio="xMidYMid meet">

<g transform="translate(0.000000,192.000000) scale(0.100000,-0.100000)"
fill="#000000" stroke="none">
<path d="M570 1766 c0 -2 8 -10 18 -17 15 -13 16 -12 3 4 -13 16 -21 21 -21
13z"/>
<path d="M551 1735 c1 -19 18 -51 18 -35 0 8 -4 22 -9 30 -5 8 -9 11 -9 5z"/>
<path d="M600 1726 c0 -2 8 -10 18 -17 15 -13 16 -12 3 4 -13 16 -21 21 -21
13z"/>
<path d="M630 1686 c0 -2 8 -10 18 -17 15 -13 16 -12 3 4 -13 16 -21 21 -21
13z"/>
<path d="M742 1639 c13 -17 19 -37 16 -53 -3 -15 -1 -24 6 -23 17 3 46 -65 47
-113 0 -32 3 -39 8 -25 10 26 -4 98 -26 132 -28 42 -43 91 -29 96 6 2 -1 6
-16 9 l-26 5 20 -28z"/>
<path d="M583 1638 c3 -9 1 -19 -6 -22 -9 -3 -9 -5 0 -5 18 -1 23 13 11 29 -8
12 -9 12 -5 -2z"/>
<path d="M660 1640 c0 -6 5 -10 10 -10 6 0 10 -5 10 -10 0 -6 -12 -8 -27 -5
-16 3 -21 2 -13 -1 8 -4 23 -11 33 -16 14 -7 17 -4 17 16 0 13 -7 26 -15 30
-8 3 -15 1 -15 -4z"/>
<path d="M781 1647 c2 -1 13 -9 24 -17 19 -14 19 -14 6 3 -7 9 -18 17 -24 17
-6 0 -8 -1 -6 -3z"/>
<path d="M849 1619 c14 -5 30 -13 36 -17 6 -4 2 1 -8 11 -11 9 -27 17 -36 16
-10 0 -7 -4 8 -10z"/>
<path d="M511 1561 c-23 -27 -41 -52 -41 -56 0 -8 16 9 58 63 45 58 33 53 -17
-7z"/>
<path d="M575 1580 c-3 -6 1 -7 9 -4 18 7 21 14 7 14 -6 0 -13 -4 -16 -10z"/>
<path d="M667 1574 c3 -8 1 -20 -5 -27 -5 -6 -11 -21 -13 -31 -4 -17 -5 -18
-17 -3 -11 13 -10 19 9 38 12 12 15 20 8 17 -8 -2 -25 -27 -38 -56 -17 -35
-33 -54 -51 -61 -42 -14 -52 0 -29 39 12 19 15 29 8 23 -7 -7 -22 -14 -33 -14
-17 -1 -18 -2 -4 -6 14 -4 15 -8 5 -23 -9 -16 -8 -22 7 -33 16 -12 23 -12 48
0 16 8 36 26 44 39 12 18 22 22 39 18 20 -5 22 -2 18 20 -4 17 1 28 16 38 26
16 27 24 2 31 -14 3 -18 1 -14 -9z"/>
<path d="M907 1559 c4 -13 8 -18 11 -10 2 7 -1 18 -6 23 -8 8 -9 4 -5 -13z"/>
<path d="M841 1544 c0 -11 3 -14 6 -6 3 7 2 16 -1 19 -3 4 -6 -2 -5 -13z"/>
<path d="M920 1493 c0 -7 4 -13 8 -13 5 0 14 -10 20 -22 6 -13 11 -18 11 -12
1 7 -8 22 -19 35 -10 13 -19 18 -20 12z"/>
<path d="M665 1440 c5 -15 2 -20 -10 -20 -11 0 -15 5 -11 15 7 19 -8 20 -23 1
-14 -16 3 -31 34 -31 14 0 21 8 23 28 2 15 -2 27 -8 27 -7 0 -9 -8 -5 -20z"/>
<path d="M489 1363 c-19 -27 -36 -52 -38 -58 -5 -14 59 66 70 88 17 31 4 18
-32 -30z"/>
<path d="M801 1352 c-1 -43 3 -57 22 -76 30 -30 26 -38 -60 -129 -56 -57 -64
-71 -59 -93 5 -18 3 -24 -5 -19 -7 5 -10 1 -7 -10 5 -29 28 -30 28 -3 0 23 45
77 58 70 4 -2 8 2 10 8 6 17 -55 -17 -67 -37 -10 -17 -10 -17 -11 -1 0 9 34
53 75 97 41 44 75 85 75 90 0 5 -10 15 -22 23 -18 12 -24 28 -29 74 l-6 59 -2
-53z"/>
<path d="M956 1382 c6 -4 21 -23 33 -42 11 -19 21 -31 21 -26 0 17 -42 76 -53
76 -9 0 -9 -2 -1 -8z"/>
<path d="M744 1294 c-18 -14 -18 -15 4 -4 12 6 22 13 22 15 0 8 -5 6 -26 -11z"/>
<path d="M1013 1260 c0 -25 2 -35 4 -22 2 12 2 32 0 45 -2 12 -4 2 -4 -23z"/>
<path d="M686 1273 c-13 -3 -15 -7 -7 -12 8 -6 1 -23 -24 -61 -20 -29 -29 -47
-20 -40 9 7 28 34 43 59 14 25 31 49 37 53 11 8 1 9 -29 1z"/>
<path d="M450 1261 c0 -9 49 -56 53 -50 1 2 -10 16 -25 31 -15 15 -28 23 -28
19z"/>
<path d="M910 1254 c0 -8 5 -12 10 -9 6 3 10 10 10 16 0 5 -4 9 -10 9 -5 0
-10 -7 -10 -16z"/>
<path d="M613 1239 c-12 -12 -39 -25 -60 -29 -36 -7 -37 -8 -7 -9 21 -1 44 9
69 29 21 17 34 30 29 30 -5 0 -19 -10 -31 -21z"/>
<path d="M1005 1199 c-4 -6 -5 -12 -2 -15 2 -3 7 2 10 11 7 17 1 20 -8 4z"/>
<path d="M969 1125 c-15 -24 -52 -62 -84 -85 -31 -23 -54 -44 -51 -48 4 -3 12
1 19 10 6 8 27 25 44 37 38 26 106 106 101 120 -1 5 -15 -10 -29 -34z"/>
<path d="M603 1128 c-15 -20 -25 -38 -20 -38 3 0 12 11 21 25 17 26 16 35 -1
13z"/>
<path d="M364 1108 c-19 -23 -19 -23 1 -6 11 9 31 18 45 21 l25 4 -26 2 c-16
0 -33 -8 -45 -21z"/>
<path d="M440 1117 c0 -2 15 -14 33 -27 20 -15 27 -17 18 -6 -13 16 -51 41
-51 33z"/>
<path d="M330 1059 c-7 -11 -10 -23 -7 -25 2 -2 9 7 15 21 14 30 7 33 -8 4z"/>
<path d="M566 1063 c-6 -14 -5 -15 5 -6 7 7 10 15 7 18 -3 3 -9 -2 -12 -12z"/>
<path d="M510 1066 c0 -2 8 -10 18 -17 15 -13 16 -12 3 4 -13 16 -21 21 -21
13z"/>
<path d="M756 1055 c-3 -9 -5 -35 -5 -58 2 -40 2 -39 9 13 7 59 6 71 -4 45z"/>
<path d="M414 1053 c4 -7 0 -23 -8 -35 -9 -12 -16 -29 -16 -37 0 -9 9 2 20 24
15 29 17 42 8 50 -8 7 -9 6 -4 -2z"/>
<path d="M551 1024 c0 -11 3 -14 6 -6 3 7 2 16 -1 19 -3 4 -6 -2 -5 -13z"/>
<path d="M542 968 c-1 -23 -7 -38 -14 -38 -10 0 -9 -3 1 -9 7 -5 11 -13 7 -19
-4 -6 2 -8 15 -5 11 3 16 9 11 12 -6 4 -12 27 -15 51 -3 43 -4 43 -5 8z"/>
<path d="M810 920 c0 -22 3 -40 8 -40 4 0 6 18 4 40 -2 22 -6 40 -8 40 -2 0
-4 -18 -4 -40z"/>
<path d="M760 943 c0 -6 9 -21 21 -34 l20 -24 -17 30 c-24 39 -24 40 -24 28z"/>
<path d="M384 926 c-8 -8 -7 -14 5 -23 15 -12 14 -14 -3 -28 -24 -18 -58 -19
-74 -3 -9 9 -12 9 -12 0 0 -31 94 -25 105 7 8 27 -7 61 -21 47z"/>
<path d="M290 908 c0 -12 3 -17 8 -12 4 5 11 12 15 15 5 3 2 9 -7 12 -12 5
-16 0 -16 -15z"/>
<path d="M408 833 c-28 -31 -52 -72 -45 -79 2 -3 10 9 17 26 7 17 26 42 42 55
16 14 26 25 21 25 -5 0 -21 -12 -35 -27z"/>
<path d="M1201 846 c0 -6 5 -20 10 -31 9 -19 9 -19 5 2 -3 17 2 22 28 27 40 8
93 -10 106 -34 14 -27 12 -81 -5 -110 -21 -37 -18 -74 8 -97 24 -22 61 -43 74
-43 4 1 -5 8 -22 17 -68 35 -80 66 -49 124 8 17 14 48 12 72 -4 56 -50 89
-120 86 -27 -2 -48 -7 -47 -13z"/>
<path d="M1295 819 c27 -22 29 -41 11 -94 -5 -13 -2 -11 8 5 8 14 15 35 16 48
0 23 -32 62 -51 62 -7 0 1 -10 16 -21z"/>
<path d="M1241 793 c7 -12 15 -20 18 -17 3 2 -3 12 -13 22 -17 16 -18 16 -5
-5z"/>
<path d="M648 793 c7 -3 16 -2 19 1 4 3 -2 6 -13 5 -11 0 -14 -3 -6 -6z"/>
<path d="M445 770 c-26 -28 -15 -31 12 -3 12 13 19 23 14 23 -4 0 -16 -9 -26
-20z"/>
<path d="M575 783 c30 -3 58 -12 70 -22 20 -18 85 -60 75 -49 -3 3 -26 22 -53
42 -40 31 -54 36 -95 34 l-47 -2 50 -3z"/>
<path d="M1200 750 c0 -9 -21 -33 -46 -54 -51 -43 -75 -88 -73 -138 1 -34 3
-29 14 35 6 37 57 107 79 107 6 0 25 13 41 28 17 15 25 23 17 18 -9 -7 -16 -5
-23 5 -7 12 -9 12 -9 -1z"/>
<path d="M342 653 c-4 -99 26 -128 80 -76 28 27 33 53 19 103 l-7 25 -6 -27
c-3 -16 -1 -25 4 -22 5 4 8 -8 6 -26 -2 -22 -12 -40 -31 -54 -28 -21 -29 -21
-43 -2 -11 15 -11 22 -1 35 9 11 9 13 0 8 -8 -5 -13 7 -16 40 l-3 48 -2 -52z"/>
<path d="M760 690 c8 -5 20 -10 25 -10 6 0 3 5 -5 10 -8 5 -19 10 -25 10 -5 0
-3 -5 5 -10z"/>
<path d="M800 665 c0 -8 2 -15 4 -15 2 0 6 7 10 15 3 8 1 15 -4 15 -6 0 -10
-7 -10 -15z"/>
<path d="M905 660 l-30 -8 27 -1 c22 -1 27 -6 31 -33 3 -29 4 -27 5 10 1 23 1
41 0 41 -2 -1 -16 -5 -33 -9z"/>
<path d="M1281 654 c0 -11 3 -14 6 -6 3 7 2 16 -1 19 -3 4 -6 -2 -5 -13z"/>
<path d="M811 614 c0 -11 3 -14 6 -6 3 7 2 16 -1 19 -3 4 -6 -2 -5 -13z"/>
<path d="M946 555 c3 -16 13 -37 22 -45 14 -13 15 -13 5 0 -6 8 -15 29 -22 45
l-11 30 6 -30z"/>
<path d="M1294 561 c7 -11 46 -35 46 -28 0 3 -12 12 -26 22 -15 9 -23 12 -20
6z"/>
<path d="M1488 525 c28 -20 52 -39 52 -43 0 -4 10 -18 21 -32 l20 -25 -16 33
c-15 30 -98 101 -120 102 -5 0 14 -16 43 -35z"/>
<path d="M1350 526 c0 -3 14 -12 30 -21 17 -9 30 -13 30 -11 0 3 -13 12 -30
21 -16 9 -30 13 -30 11z"/>
<path d="M1090 510 c0 -29 39 -79 82 -104 47 -27 129 -59 135 -52 2 2 -18 11
-45 20 -74 25 -130 65 -152 111 -11 22 -20 33 -20 25z"/>
<path d="M930 490 c-6 -11 -8 -20 -6 -20 3 0 10 9 16 20 6 11 8 20 6 20 -3 0
-10 -9 -16 -20z"/>
<path d="M1440 470 c14 -12 33 -31 43 -43 l18 -22 -10 22 c-6 12 -26 31 -43
43 l-33 22 25 -22z"/>
<path d="M820 450 c-6 -11 -8 -20 -6 -20 3 0 10 9 16 20 6 11 8 20 6 20 -3 0
-10 -9 -16 -20z"/>
<path d="M892 388 c-1 -16 -9 -28 -19 -31 -17 -4 -16 -5 0 -6 27 -2 17 -35
-11 -39 -13 -2 -34 4 -48 12 -13 9 -24 12 -24 6 0 -12 42 -30 69 -30 34 0 47
22 40 70 -3 27 -7 34 -7 18z"/>
<path d="M1579 378 c4 -28 6 -29 9 -9 2 13 0 27 -5 32 -6 6 -7 -3 -4 -23z"/>
<path d="M792 380 c0 -14 2 -19 5 -12 2 6 2 18 0 25 -3 6 -5 1 -5 -13z"/>
<path d="M1320 396 c0 -2 8 -10 18 -17 15 -13 16 -12 3 4 -13 16 -21 21 -21
13z"/>
<path d="M1016 355 c-9 -26 -7 -32 5 -12 6 10 9 21 6 23 -2 3 -7 -2 -11 -11z"/>
<path d="M1512 340 c0 -14 2 -19 5 -12 2 6 2 18 0 25 -3 6 -5 1 -5 -13z"/>
<path d="M1338 331 c33 -32 25 -63 -18 -78 -31 -11 -32 -12 -9 -12 57 -2 77
67 29 97 l-25 16 23 -23z"/>
<path d="M1571 333 c-1 -6 -4 -20 -7 -30 -5 -17 -5 -17 6 0 6 10 9 23 6 30 -3
9 -5 9 -5 0z"/>
<path d="M1092 263 c-2 -39 -5 -43 -34 -52 -22 -6 -26 -9 -12 -10 38 -2 56 21
51 64 l-4 40 -1 -42z"/>
<path d="M1211 287 c2 -1 13 -9 24 -17 19 -14 19 -14 6 3 -7 9 -18 17 -24 17
-6 0 -8 -1 -6 -3z"/>
<path d="M1470 248 c-15 -21 -17 -28 -6 -19 16 13 41 51 33 51 -2 0 -14 -15
-27 -32z"/>
<path d="M1520 239 c-20 -23 -52 -46 -75 -54 -22 -8 -32 -14 -22 -15 35 0 106
51 128 93 14 26 8 21 -31 -24z"/>
<path d="M990 260 c0 -5 7 -7 15 -4 8 4 15 8 15 10 0 2 -7 4 -15 4 -8 0 -15
-4 -15 -10z"/>
<path d="M1210 260 c0 -37 64 -91 107 -90 10 1 1 7 -21 15 -45 16 -49 20 -70
60 -9 17 -16 23 -16 15z"/>
<path d="M1058 253 c7 -3 16 -2 19 1 4 3 -2 6 -13 5 -11 0 -14 -3 -6 -6z"/>
<path d="M990 231 c0 -10 19 -25 25 -20 1 2 -3 10 -11 17 -8 7 -14 8 -14 3z"/>
<path d="M1420 210 c-9 -6 -10 -10 -3 -10 6 0 15 5 18 10 8 12 4 12 -15 0z"/>
<path d="M1363 193 c9 -2 23 -2 30 0 6 3 -1 5 -18 5 -16 0 -22 -2 -12 -5z"/>
<path d="M1353 163 c9 -2 25 -2 35 0 9 3 1 5 -18 5 -19 0 -27 -2 -17 -5z"/>
</g>
</svg>
